{
  "accessors": [
    {
      "bufferView": 2,
      "componentType": 5126,
      "count": 3136,
      "max": [
        -0.9983850121498108,
        0.41467106342315674,
        0.600838303565979
      ],
      "min": [
        -1.2793278694152832,
        0.13372835516929626,
        -0.600838303565979
      ],
      "type": "VEC3"
    },
    {
      "bufferView": 2,
      "byteOffset": 37632,
      "componentType": 5126,
      "count": 3136,
      "max": [
        1.0,
        1.0,
        0.9999622106552124
      ],
      "min": [
        -1.0,
        -1.0,
        -0.9999622106552124
      ],
      "type": "VEC3"
    },
    {
      "bufferView": 1,
      "componentType": 5126,
      "count": 3136,
      "max": [
        0.0,
        1.0
      ],
      "min": [
        0.0,
        1.0
      ],
      "type": "VEC2"
    },
    {
      "bufferView": 0,
      "componentType": 5125,
      "count": 18432,
      "type": "SCALAR"
    },
    {
      "bufferView": 2,
      "byteOffset": 75264,
      "componentType": 5126,
      "count": 3136,
      "max": [
        1.3322179317474365,
        0.41934800148010254,
        0.6085339188575745
      ],
      "min": [
        1.0419211387634277,
        0.12905140221118927,
        -0.6085339188575745
      ],
      "type": "VEC3"
    },
    {
      "bufferView": 2,
      "byteOffset": 112896,
      "componentType": 5126,
      "count": 3136,
      "max": [
        1.0,
        1.0,
        0.9999634623527527
      ],
      "min": [
        -1.0,
        -1.0,
        -0.9999634623527527
      ],
      "type": "VEC3"
    },
    {
      "bufferView": 1,
      "byteOffset": 25088,
      "componentType": 5126,
      "count": 3136,
      "max": [
        0.0,
        1.0
      ],
      "min": [
        0.0,
        1.0
      ],
      "type": "VEC2"
    },
    {
      "bufferView": 0,
      "byteOffset": 73728,
      "componentType": 5125,
      "count": 18432,
      "type": "SCALAR"
    },
    {
      "bufferView": 2,
      "byteOffset": 150528,
      "componentType": 5126,
      "count": 65532,
      "max": [
        1.7936242818832397,
        1.7591936588287354,
        0.7231470942497253
      ],
      "min": [
        -1.7611485719680786,
        0.39642900228500366,
        -0.7231470942497253
      ],
      "type": "VEC3"
    },
    {
      "bufferView": 2,
      "byteOffset": 936912,
      "componentType": 5126,
      "count": 65532,
      "max": [
        1.0,
        1.0,
        1.0
      ],
      "min": [
        -1.0,
        -1.0,
        -1.0
      ],
      "type": "VEC3"
    },
    {
      "bufferView": 1,
      "byteOffset": 50176,
      "componentType": 5126,
      "count": 65532,
      "max": [
        0.9788899421691895,
        1.0
      ],
      "min": [
        0.0,
        0.021621882915496826
      ],
      "type": "VEC2"
    },
    {
      "bufferView": 0,
      "byteOffset": 147456,
      "componentType": 5125,
      "count": 319755,
      "type": "SCALAR"
    },
    {
      "bufferView": 2,
      "byteOffset": 1723296,
      "componentType": 5126,
      "count": 55051,
      "max": [
        1.791436791419983,
        1.7591935396194458,
        0.7231470942497253
      ],
      "min": [
        -1.7611485719680786,
        0.39642900228500366,
        -0.7230113744735718
      ],
      "type": "VEC3"
    },
    {
      "bufferView": 2,
      "byteOffset": 2383908,
      "componentType": 5126,
      "count": 55051,
      "max": [
        1.0,
        1.0,
        1.0
      ],
      "min": [
        -1.0,
        -1.0,
        -1.0
      ],
      "type": "VEC3"
    },
    {
      "bufferView": 1,
      "byteOffset": 574432,
      "componentType": 5126,
      "count": 55051,
      "max": [
        0.9788899421691895,
        1.0
      ],
      "min": [
        0.0,
        0.03834336996078491
      ],
      "type": "VEC2"
    },
    {
      "bufferView": 0,
      "byteOffset": 1426476,
      "componentType": 5125,
      "count": 270309,
      "type": "SCALAR"
    },
    {
      "bufferView": 2,
      "byteOffset": 3044520,
      "componentType": 5126,
      "count": 34399,
      "max": [
        1.792841911315918,
        1.3895784616470337,
        0.884775698184967
      ],
      "min": [
        -1.2785696983337402,
        0.8612980842590332,
        -0.8847756385803223
      ],
      "type": "VEC3"
    },
    {
      "bufferView": 2,
      "byteOffset": 3457308,
      "componentType": 5126,
      "count": 34399,
      "max": [
        1.0,
        1.0,
        1.0
      ],
      "min": [
        -1.0,
        -1.0,
        -1.0
      ],
      "type": "VEC3"
    },
    {
      "bufferView": 1,
      "byteOffset": 1014840,
      "componentType": 5126,
      "count": 34399,
      "max": [
        1.0000001192092896,
        1.0
      ],
      "min": [
        0.0,
        -1.1920928955078125e-07
      ],
      "type": "VEC2"
    },
    {
      "bufferView": 0,
      "byteOffset": 2507712,
      "componentType": 5125,
      "count": 161328,
      "type": "SCALAR"
    },
    {
      "bufferView": 2,
      "byteOffset": 3870096,
      "componentType": 5126,
      "count": 224,
      "max": [
        -0.8204934597015381,
        1.3856083154678345,
        0.8755651712417603
      ],
      "min": [
        -0.8654193878173828,
        1.2460860013961792,
        -0.8755651712417603
      ],
      "type": "VEC3"
    },
    {
      "bufferView": 2,
      "byteOffset": 3872784,
      "componentType": 5126,
      "count": 224,
      "max": [
        0.9342647194862366,
        1.6333695384673774e-05,
        0.3566213846206665
      ],
      "min": [
        0.93424391746521,
        -1.5060321857163217e-05,
        -0.35663479566574097
      ],
      "type": "VEC3"
    },
    {
      "bufferView": 1,
      "byteOffset": 1290032,
      "componentType": 5126,
      "count": 224,
      "max": [
        0.9735947251319885,
        0.973005473613739
      ],
      "min": [
        0.026405448094010353,
        0.026994287967681885
      ],
      "type": "VEC2"
    },
    {
      "bufferView": 0,
      "byteOffset": 3153024,
      "componentType": 5125,
      "count": 768,
      "type": "SCALAR"
    },
    {
      "bufferView": 2,
      "byteOffset": 3875472,
      "componentType": 5126,
      "count": 21783,
      "max": [
        1.662611961364746,
        0.8679143786430359,
        0.7231470346450806
      ],
      "min": [
        -1.049566626548767,
        0.2849526107311249,
        -0.7231470346450806
      ],
      "type": "VEC3"
    },
    {
      "bufferView": 2,
      "byteOffset": 4136868,
      "componentType": 5126,
      "count": 21783,
      "max": [
        1.0,
        0.9991617202758789,
        0.9999998807907104
      ],
      "min": [
        -1.0,
        -1.0,
        -0.9999998807907104
      ],
      "type": "VEC3"
    },
    {
      "bufferView": 1,
      "byteOffset": 1291824,
      "componentType": 5126,
      "count": 21783,
      "max": [
        0.0,
        1.0
      ],
      "min": [
        0.0,
        1.0
      ],
      "type": "VEC2"
    },
    {
      "bufferView": 0,
      "byteOffset": 3156096,
      "componentType": 5125,
      "count": 127008,
      "type": "SCALAR"
    },
    {
      "bufferView": 2,
      "byteOffset": 4398264,
      "componentType": 5126,
      "count": 1993,
      "max": [
        -0.13545149564743042,
        0.581726610660553,
        -0.7130692005157471
      ],
      "min": [
        -0.1634492576122284,
        0.5537319183349609,
        -0.7188414335250854
      ],
      "type": "VEC3"
    },
    {
      "bufferView": 2,
      "byteOffset": 4422180,
      "componentType": 5126,
      "count": 1993,
      "max": [
        0.9996493458747864,
        0.9982911348342896,
        0.13038738071918488
      ],
      "min": [
        -0.9996498227119446,
        -0.9998463988304138,
        -0.9996361136436462
      ],
      "type": "VEC3"
    },
    {
      "bufferView": 1,
      "byteOffset": 1466088,
      "componentType": 5126,
      "count": 1993,
      "max": [
        0.0,
        1.0
      ],
      "min": [
        0.0,
        1.0
      ],
      "type": "VEC2"
    },
    {
      "bufferView": 0,
      "byteOffset": 3664128,
      "componentType": 5125,
      "count": 11184,
      "type": "SCALAR"
    },
    {
      "bufferView": 2,
      "byteOffset": 4446096,
      "componentType": 5126,
      "count": 31398,
      "max": [
        1.8275045156478882,
        0.849297285079956,
        0.7188065648078918
      ],
      "min": [
        -1.8279443979263306,
        0.35600385069847107,
        -0.7188065648078918
      ],
      "type": "VEC3"
    },
    {
      "bufferView": 2,
      "byteOffset": 4822872,
      "componentType": 5126,
      "count": 31398,
      "max": [
        1.0,
        1.0,
        0.9999995827674866
      ],
      "min": [
        -1.0,
        -1.0,
        -0.999999463558197
      ],
      "type": "VEC3"
    },
    {
      "bufferView": 1,
      "byteOffset": 1482032,
      "componentType": 5126,
      "count": 31398,
      "max": [
        0.9935960173606873,
        1.0
      ],
      "min": [
        0.0,
        0.03383302688598633
      ],
      "type": "VEC2"
    },
    {
      "bufferView": 0,
      "byteOffset": 3708864,
      "componentType": 5125,
      "count": 150192,
      "type": "SCALAR"
    },
    {
      "bufferView": 2,
      "byteOffset": 5199648,
      "componentType": 5126,
      "count": 19007,
      "max": [
        -0.7196148037910461,
        1.2166246175765991,
        0.6537154912948608
      ],
      "min": [
        -1.2291648387908936,
        0.8361873030662537,
        -0.6518094539642334
      ],
      "type": "VEC3"
    },
    {
      "bufferView": 2,
      "byteOffset": 5427732,
      "componentType": 5126,
      "count": 19007,
      "max": [
        0.9999802112579346,
        1.0,
        1.0
      ],
      "min": [
        -1.0,
        -1.0,
        -1.0
      ],
      "type": "VEC3"
    },
    {
      "bufferView": 1,
      "byteOffset": 1733216,
      "componentType": 5126,
      "count": 19007,
      "max": [
        0.0,
        1.0
      ],
      "min": [
        0.0,
        1.0
      ],
      "type": "VEC2"
    },
    {
      "bufferView": 0,
      "byteOffset": 4309632,
      "componentType": 5125,
      "count": 108048,
      "type": "SCALAR"
    },
    {
      "bufferView": 2,
      "byteOffset": 5655816,
      "componentType": 5126,
      "count": 5696,
      "max": [
        -0.8019068837165833,
        1.2166246175765991,
        0.16372811794281006
      ],
      "min": [
        -0.9144355654716492,
        0.836187481880188,
        -0.48711204528808594
      ],
      "type": "VEC3"
    },
    {
      "bufferView": 2,
      "byteOffset": 5724168,
      "componentType": 5126,
      "count": 5696,
      "max": [
        1.0,
        0.9999961853027344,
        0.9999720454216003
      ],
      "min": [
        0.002168980659916997,
        -0.9999935030937195,
        -0.999994158744812
      ],
      "type": "VEC3"
    },
    {
      "bufferView": 1,
      "byteOffset": 1885272,
      "componentType": 5126,
      "count": 5696,
      "max": [
        0.0,
        1.0
      ],
      "min": [
        0.0,
        1.0
      ],
      "type": "VEC2"
    },
    {
      "bufferView": 0,
      "byteOffset": 4741824,
      "componentType": 5125,
      "count": 32592,
      "type": "SCALAR"
    },
    {
      "bufferView": 2,
      "byteOffset": 5792520,
      "componentType": 5126,
      "count": 10924,
      "max": [
        -0.7532484531402588,
        1.1994588375091553,
        0.6162330508232117
      ],
      "min": [
        -0.9902307391166687,
        0.9406489133834839,
        -0.6162330508232117
      ],
      "type": "VEC3"
    },
    {
      "bufferView": 2,
      "byteOffset": 5923608,
      "componentType": 5126,
      "count": 10924,
      "max": [
        1.0,
        0.999083936214447,
        1.0
      ],
      "min": [
        -0.999998927116394,
        -0.9923558235168457,
        -1.0
      ],
      "type": "VEC3"
    },
    {
      "bufferView": 1,
      "byteOffset": 1930840,
      "componentType": 5126,
      "count": 10924,
      "max": [
        0.0,
        1.0
      ],
      "min": [
        0.0,
        1.0
      ],
      "type": "VEC2"
    },
    {
      "bufferView": 0,
      "byteOffset": 4872192,
      "componentType": 5125,
      "count": 64752,
      "type": "SCALAR"
    },
    {
      "bufferView": 2,
      "byteOffset": 6054696,
      "componentType": 5126,
      "count": 10,
      "max": [
        -1.6855679750442505,
        0.893641471862793,
        0.49269387125968933
      ],
      "min": [
        -1.7076884508132935,
        0.42115581035614014,
        -0.4984530508518219
      ],
      "type": "VEC3"
    },
    {
      "bufferView": 2,
      "byteOffset": 6054816,
      "componentType": 5126,
      "count": 10,
      "max": [
        1.0,
        0.0,
        -0.0
      ],
      "min": [
        0.9955557584762573,
        -0.09417425096035004,
        -0.0
      ],
      "type": "VEC3"
    },
    {
      "bufferView": 1,
      "byteOffset": 2018232,
      "componentType": 5126,
      "count": 10,
      "max": [
        1.0,
        1.0
      ],
      "min": [
        0.0,
        0.0
      ],
      "type": "VEC2"
    },
    {
      "bufferView": 0,
      "byteOffset": 5131200,
      "componentType": 5125,
      "count": 18,
      "type": "SCALAR"
    },
    {
      "bufferView": 2,
      "byteOffset": 6054936,
      "componentType": 5126,
      "count": 6724,
      "max": [
        -1.5515462160110474,
        0.9054023027420044,
        0.6953269839286804
      ],
      "min": [
        -1.7410975694656372,
        0.7308157086372375,
        -0.6953269839286804
      ],
      "type": "VEC3"
    },
    {
      "bufferView": 2,
      "byteOffset": 6135624,
      "componentType": 5126,
      "count": 6724,
      "max": [
        0.9995250701904297,
        0.9910918474197388,
        0.9990295767784119
      ],
      "min": [
        -0.999525249004364,
        -0.9999725222587585,
        -0.9990293383598328
      ],
      "type": "VEC3"
    },
    {
      "bufferView": 0,
      "byteOffset": 5131272,
      "componentType": 5125,
      "count": 40320,
      "type": "SCALAR"
    },
    {
      "bufferView": 2,
      "byteOffset": 6216312,
      "componentType": 5126,
      "count": 12586,
      "max": [
        -1.5521053075790405,
        0.9049825668334961,
        0.6930978894233704
      ],
      "min": [
        -1.7392843961715698,
        0.7328121066093445,
        -0.6930978894233704
      ],
      "type": "VEC3"
    },
    {
      "bufferView": 2,
      "byteOffset": 6367344,
      "componentType": 5126,
      "count": 12586,
      "max": [
        0.9939976930618286,
        0.9999998211860657,
        0.9999998211860657
      ],
      "min": [
        -1.0,
        -0.9999998807907104,
        -0.9999997615814209
      ],
      "type": "VEC3"
    },
    {
      "bufferView": 1,
      "byteOffset": 2018312,
      "componentType": 5126,
      "count": 12586,
      "max": [
        0.0,
        1.0
      ],
      "min": [
        0.0,
        1.0
      ],
      "type": "VEC2"
    },
    {
      "bufferView": 0,
      "byteOffset": 5292552,
      "componentType": 5125,
      "count": 72288,
      "type": "SCALAR"
    },
    {
      "bufferView": 2,
      "byteOffset": 6518376,
      "componentType": 5126,
      "count": 3126,
      "max": [
        -1.5655372142791748,
        0.8489552140235901,
        0.6496359705924988
      ],
      "min": [
        -1.61708664894104,
        0.8247562050819397,
        -0.6496359705924988
      ],
      "type": "VEC3"
    },
    {
      "bufferView": 2,
      "byteOffset": 6555888,
      "componentType": 5126,
      "count": 3126,
      "max": [
        1.0,
        0.9999491572380066,
        0.9999492764472961
      ],
      "min": [
        -1.0,
        -0.9999492168426514,
        -0.9999492764472961
      ],
      "type": "VEC3"
    },
    {
      "bufferView": 1,
      "byteOffset": 2119000,
      "componentType": 5126,
      "count": 3126,
      "max": [
        0.0,
        1.0
      ],
      "min": [
        0.0,
        1.0
      ],
      "type": "VEC2"
    },
    {
      "bufferView": 0,
      "byteOffset": 5581704,
      "componentType": 5125,
      "count": 18240,
      "type": "SCALAR"
    },
    {
      "bufferView": 2,
      "byteOffset": 6593400,
      "componentType": 5126,
      "count": 3524,
      "max": [
        -1.5752719640731812,
        0.8509835600852966,
        0.6527156233787537
      ],
      "min": [
        -1.597208023071289,
        0.823941171169281,
        -0.6527156233787537
      ],
      "type": "VEC3"
    },
    {
      "bufferView": 2,
      "byteOffset": 6635688,
      "componentType": 5126,
      "count": 3524,
      "max": [
        1.0,
        0.9999935030937195,
        0.9999933838844299
      ],
      "min": [
        -1.0,
        -0.9999935030937195,
        -0.9999933838844299
      ],
      "type": "VEC3"
    },
    {
      "bufferView": 1,
      "byteOffset": 2144008,
      "componentType": 5126,
      "count": 3524,
      "max": [
        0.0,
        1.0
      ],
      "min": [
        0.0,
        1.0
      ],
      "type": "VEC2"
    },
    {
      "bufferView": 0,
      "byteOffset": 5654664,
      "componentType": 5125,
      "count": 21120,
      "type": "SCALAR"
    },
    {
      "bufferView": 2,
      "byteOffset": 6677976,
      "componentType": 5126,
      "count": 800,
      "max": [
        -1.6246719360351563,
        0.8490355610847473,
        0.507118821144104
      ],
      "min": [
        -1.6592967510223389,
        0.8246755003929138,
        -0.507118821144104
      ],
      "type": "VEC3"
    },
    {
      "bufferView": 2,
      "byteOffset": 6687576,
      "componentType": 5126,
      "count": 800,
      "max": [
        1.7592154108569957e-05,
        1.0,
        1.0
      ],
      "min": [
        -1.4073203601583373e-05,
        -1.0,
        -1.0
      ],
      "type": "VEC3"
    },
    {
      "bufferView": 1,
      "byteOffset": 2172200,
      "componentType": 5126,
      "count": 800,
      "max": [
        0.0,
        1.0
      ],
      "min": [
        0.0,
        1.0
      ],
      "type": "VEC2"
    },
    {
      "bufferView": 0,
      "byteOffset": 5739144,
      "componentType": 5125,
      "count": 3840,
      "type": "SCALAR"
    },
    {
      "bufferView": 2,
      "byteOffset": 6697176,
      "componentType": 5126,
      "count": 8564,
      "max": [
        -1.5599980354309082,
        0.9020181894302368,
        0.6857985258102417
      ],
      "min": [
        -1.7136037349700928,
        0.7354851365089417,
        -0.6857985258102417
      ],
      "type": "VEC3"
    },
    {
      "bufferView": 2,
      "byteOffset": 6799944,
      "componentType": 5126,
      "count": 8564,
      "max": [
        1.0,
        0.9728195071220398,
        0.9946908950805664
      ],
      "min": [
        -0.972000241279602,
        -0.9703311920166016,
        -0.99468994140625
      ],
      "type": "VEC3"
    },
    {
      "bufferView": 1,
      "byteOffset": 2178600,
      "componentType": 5126,
      "count": 8564,
      "max": [
        0.9442002773284912,
        0.7800819277763367
      ],
      "min": [
        0.16274070739746094,
        0.1506127119064331
      ],
      "type": "VEC2"
    },
    {
      "bufferView": 0,
      "byteOffset": 5754504,
      "componentType": 5125,
      "count": 44928,
      "type": "SCALAR"
    },
    {
      "bufferView": 2,
      "byteOffset": 6902712,
      "componentType": 5126,
      "count": 20362,
      "max": [
        1.7550480365753174,
        1.7201619148254395,
        0.7063043117523193
      ],
      "min": [
        -1.2768996953964233,
        0.5019020438194275,
        -0.7063043117523193
      ],
      "type": "VEC3"
    },
    {
      "bufferView": 2,
      "byteOffset": 7147056,
      "componentType": 5126,
      "count": 20362,
      "max": [
        1.0,
        0.9999406337738037,
        1.0
      ],
      "min": [
        -1.0,
        -1.0,
        -1.0
      ],
      "type": "VEC3"
    },
    {
      "bufferView": 1,
      "byteOffset": 2247112,
      "componentType": 5126,
      "count": 20362,
      "max": [
        0.0,
        1.0
      ],
      "min": [
        0.0,
        1.0
      ],
      "type": "VEC2"
    },
    {
      "bufferView": 0,
      "byteOffset": 5934216,
      "componentType": 5125,
      "count": 115200,
      "type": "SCALAR"
    },
    {
      "bufferView": 2,
      "byteOffset": 7391400,
      "componentType": 5126,
      "count": 18210,
      "max": [
        1.717371940612793,
        1.7354191541671753,
        0.6492804884910583
      ],
      "min": [
        -1.2818142175674438,
        0.5108504295349121,
        -0.6492804884910583
      ],
      "type": "VEC3"
    },
    {
      "bufferView": 2,
      "byteOffset": 7609920,
      "componentType": 5126,
      "count": 18210,
      "max": [
        1.0,
        1.0,
        1.0
      ],
      "min": [
        -1.0,
        -1.0,
        -1.0
      ],
      "type": "VEC3"
    },
    {
      "bufferView": 1,
      "byteOffset": 2410008,
      "componentType": 5126,
      "count": 18210,
      "max": [
        0.0,
        1.0
      ],
      "min": [
        0.0,
        1.0
      ],
      "type": "VEC2"
    },
    {
      "bufferView": 0,
      "byteOffset": 6395016,
      "componentType": 5125,
      "count": 105264,
      "type": "SCALAR"
    },
    {
      "bufferView": 2,
      "byteOffset": 7828440,
      "componentType": 5126,
      "count": 7594,
      "max": [
        1.6932594776153564,
        1.6905499696731567,
        0.6677719354629517
      ],
      "min": [
        -1.0714960098266602,
        0.5171268582344055,
        -0.6677719354629517
      ],
      "type": "VEC3"
    },
    {
      "bufferView": 2,
      "byteOffset": 7919568,
      "componentType": 5126,
      "count": 7594,
      "max": [
        0.9999920725822449,
        0.999686598777771,
        1.0
      ],
      "min": [
        -0.9999920129776001,
        -0.23280036449432373,
        -1.0
      ],
      "type": "VEC3"
    },
    {
      "bufferView": 1,
      "byteOffset": 2555688,
      "componentType": 5126,
      "count": 7594,
      "max": [
        0.0,
        1.0
      ],
      "min": [
        0.0,
        1.0
      ],
      "type": "VEC2"
    },
    {
      "bufferView": 1,
      "byteOffset": 2616440,
      "componentType": 5126,
      "count": 7594,
      "max": [
        0.0,
        1.0
      ],
      "min": [
        0.0,
        1.0
      ],
      "type": "VEC2"
    },
    {
      "bufferView": 0,
      "byteOffset": 6816072,
      "componentType": 5125,
      "count": 40704,
      "type": "SCALAR"
    },
    {
      "bufferView": 2,
      "byteOffset": 8010696,
      "componentType": 5126,
      "count": 7556,
      "max": [
        0.061323925852775574,
        1.0748472213745117,
        0.6374893188476563
      ],
      "min": [
        -0.7238215804100037,
        0.9146109223365784,
        -0.6374893188476563
      ],
      "type": "VEC3"
    },
    {
      "bufferView": 2,
      "byteOffset": 8101368,
      "componentType": 5126,
      "count": 7556,
      "max": [
        0.9999376535415649,
        1.0,
        1.0
      ],
      "min": [
        -0.9999671578407288,
        -0.9999867677688599,
        -1.0
      ],
      "type": "VEC3"
    },
    {
      "bufferView": 1,
      "byteOffset": 2677192,
      "componentType": 5126,
      "count": 7556,
      "max": [
        0.0,
        1.0
      ],
      "min": [
        0.0,
        1.0
      ],
      "type": "VEC2"
    },
    {
      "bufferView": 0,
      "byteOffset": 6978888,
      "componentType": 5125,
      "count": 44160,
      "type": "SCALAR"
    },
    {
      "bufferView": 2,
      "byteOffset": 8192040,
      "componentType": 5126,
      "count": 2377,
      "max": [
        1.7639490365982056,
        0.7336989045143127,
        -0.2672543525695801
      ],
      "min": [
        1.7543795108795166,
        0.7011634111404419,
        -0.30006301403045654
      ],
      "type": "VEC3"
    },
    {
      "bufferView": 2,
      "byteOffset": 8220564,
      "componentType": 5126,
      "count": 2377,
      "max": [
        0.9999876618385315,
        0.9998281002044678,
        0.9996322393417358
      ],
      "min": [
        -0.4641549289226532,
        -0.9994034767150879,
        -0.9996578097343445
      ],
      "type": "VEC3"
    },
    {
      "bufferView": 1,
      "byteOffset": 2737640,
      "componentType": 5126,
      "count": 2377,
      "max": [
        0.0,
        1.0
      ],
      "min": [
        0.0,
        1.0
      ],
      "type": "VEC2"
    },
    {
      "bufferView": 0,
      "byteOffset": 7155528,
      "componentType": 5125,
      "count": 13488,
      "type": "SCALAR"
    },
    {
      "bufferView": 2,
      "byteOffset": 8249088,
      "componentType": 5126,
      "count": 2377,
      "max": [
        -0.1564932018518448,
        0.9354681372642517,
        -0.7057724595069885
      ],
      "min": [
        -0.1893000453710556,
        0.9027010202407837,
        -0.7109971046447754
      ],
      "type": "VEC3"
    },
    {
      "bufferView": 2,
      "byteOffset": 8277612,
      "componentType": 5126,
      "count": 2377,
      "max": [
        0.9995493292808533,
        0.9997522234916687,
        0.9370172023773193
      ],
      "min": [
        -0.9997276067733765,
        -0.9995985627174377,
        -0.9999237656593323
      ],
      "type": "VEC3"
    },
    {
      "bufferView": 1,
      "byteOffset": 2756656,
      "componentType": 5126,
      "count": 2377,
      "max": [
        0.0,
        1.0
      ],
      "min": [
        0.0,
        1.0
      ],
      "type": "VEC2"
    },
    {
      "bufferView": 0,
      "byteOffset": 7209480,
      "componentType": 5125,
      "count": 13488,
      "type": "SCALAR"
    },
    {
      "bufferView": 2,
      "byteOffset": 8306136,
      "componentType": 5126,
      "count": 43008,
      "max": [
        -0.9478743672370911,
        0.4649471044540405,
        0.6998502612113953
      ],
      "min": [
        -1.3297616243362427,
        0.08306007087230682,
        -0.6998502016067505
      ],
      "type": "VEC3"
    },
    {
      "bufferView": 2,
      "byteOffset": 8822232,
      "componentType": 5126,
      "count": 43008,
      "max": [
        0.9999998211860657,
        0.9999998211860657,
        1.0
      ],
      "min": [
        -0.9999998807907104,
        -0.9999998807907104,
        -1.0
      ],
      "type": "VEC3"
    },
    {
      "bufferView": 1,
      "byteOffset": 2775672,
      "componentType": 5126,
      "count": 43008,
      "max": [
        1.0000001192092896,
        1.0
      ],
      "min": [
        0.0,
        0.005075335502624512
      ],
      "type": "VEC2"
    },
    {
      "bufferView": 1,
      "byteOffset": 3119736,
      "componentType": 5126,
      "count": 43008,
      "max": [
        1.0000001192092896,
        1.0
      ],
      "min": [
        0.0,
        0.005075335502624512
      ],
      "type": "VEC2"
    },
    {
      "bufferView": 0,
      "byteOffset": 7263432,
      "componentType": 5125,
      "count": 203520,
      "type": "SCALAR"
    },
    {
      "bufferView": 2,
      "byteOffset": 9338328,
      "componentType": 5126,
      "count": 5631,
      "max": [
        -1.107883334159851,
        0.3049452006816864,
        0.6812542676925659
      ],
      "min": [
        -1.1697620153427124,
        0.24306653439998627,
        -0.6812543272972107
      ],
      "type": "VEC3"
    },
    {
      "bufferView": 2,
      "byteOffset": 9405900,
      "componentType": 5126,
      "count": 5631,
      "max": [
        0.9999920129776001,
        0.9999919533729553,
        1.0
      ],
      "min": [
        -0.9999920725822449,
        -0.9999919533729553,
        -1.0
      ],
      "type": "VEC3"
    },
    {
      "bufferView": 1,
      "byteOffset": 3463800,
      "componentType": 5126,
      "count": 5631,
      "max": [
        0.7578610181808472,
        0.7821183204650879
      ],
      "min": [
        0.6993529796600342,
        0.3084007501602173
      ],
      "type": "VEC2"
    },
    {
      "bufferView": 0,
      "byteOffset": 8077512,
      "componentType": 5125,
      "count": 27648,
      "type": "SCALAR"
    },
    {
      "bufferView": 2,
      "byteOffset": 9473472,
      "componentType": 5126,
      "count": 43008,
      "max": [
        1.3786721229553223,
        0.4649471044540405,
        0.6998502612113953
      ],
      "min": [
        0.9967848658561707,
        0.08306007087230682,
        -0.6998502016067505
      ],
      "type": "VEC3"
    },
    {
      "bufferView": 2,
      "byteOffset": 9989568,
      "componentType": 5126,
      "count": 43008,
      "max": [
        0.9999998807907104,
        0.9999998807907104,
        1.0
      ],
      "min": [
        -0.9999998807907104,
        -0.9999998807907104,
        -1.0
      ],
      "type": "VEC3"
    },
    {
      "bufferView": 1,
      "byteOffset": 3508848,
      "componentType": 5126,
      "count": 43008,
      "max": [
        1.0000001192092896,
        1.0
      ],
      "min": [
        0.0,
        0.005075335502624512
      ],
      "type": "VEC2"
    },
    {
      "bufferView": 1,
      "byteOffset": 3852912,
      "componentType": 5126,
      "count": 43008,
      "max": [
        1.0000001192092896,
        1.0
      ],
      "min": [
        0.0,
        0.005075335502624512
      ],
      "type": "VEC2"
    },
    {
      "bufferView": 0,
      "byteOffset": 8188104,
      "componentType": 5125,
      "count": 203520,
      "type": "SCALAR"
    },
    {
      "bufferView": 2,
      "byteOffset": 10505664,
      "componentType": 5126,
      "count": 5631,
      "max": [
        1.2186630964279175,
        0.3049452006816864,
        0.6812542676925659
      ],
      "min": [
        1.1567844152450562,
        0.24306653439998627,
        -0.6812543272972107
      ],
      "type": "VEC3"
    },
    {
      "bufferView": 2,
      "byteOffset": 10573236,
      "componentType": 5126,
      "count": 5631,
      "max": [
        0.9999919533729553,
        0.9999919533729553,
        1.0
      ],
      "min": [
        -0.9999920725822449,
        -0.9999920129776001,
        -1.0
      ],
      "type": "VEC3"
    },
    {
      "bufferView": 1,
      "byteOffset": 4196976,
      "componentType": 5126,
      "count": 5631,
      "max": [
        0.7578610181808472,
        0.7821183204650879
      ],
      "min": [
        0.6993529796600342,
        0.3084007501602173
      ],
      "type": "VEC2"
    },
    {
      "bufferView": 0,
      "byteOffset": 9002184,
      "componentType": 5125,
      "count": 27648,
      "type": "SCALAR"
    },
    {
      "bufferView": 2,
      "byteOffset": 10640808,
      "componentType": 5126,
      "count": 10304,
      "max": [
        1.5958170890808105,
        1.825932502746582,
        0.6007188558578491
      ],
      "min": [
        -0.40402013063430786,
        1.6821093559265137,
        -0.6007187962532043
      ],
      "type": "VEC3"
    },
    {
      "bufferView": 2,
      "byteOffset": 10764456,
      "componentType": 5126,
      "count": 10304,
      "max": [
        1.0,
        1.0,
        1.0
      ],
      "min": [
        -1.0,
        -1.0,
        -1.0
      ],
      "type": "VEC3"
    },
    {
      "bufferView": 1,
      "byteOffset": 4242024,
      "componentType": 5126,
      "count": 10304,
      "max": [
        0.0,
        1.0
      ],
      "min": [
        0.0,
        1.0
      ],
      "type": "VEC2"
    },
    {
      "bufferView": 0,
      "byteOffset": 9112776,
      "componentType": 5125,
      "count": 46752,
      "type": "SCALAR"
    },
    {
      "bufferView": 2,
      "byteOffset": 10888104,
      "componentType": 5126,
      "count": 2542,
      "max": [
        -0.095870740711689,
        1.4287378787994385,
        0.5503767728805542
      ],
      "min": [
        -0.7501668334007263,
        0.6369433999061584,
        -0.550376832485199
      ],
      "type": "VEC3"
    },
    {
      "bufferView": 2,
      "byteOffset": 10918608,
      "componentType": 5126,
      "count": 2542,
      "max": [
        1.0,
        1.0,
        0.9998322129249573
      ],
      "min": [
        -0.9999922513961792,
        -1.0,
        -0.999832272529602
      ],
      "type": "VEC3"
    },
    {
      "bufferView": 1,
      "byteOffset": 4324456,
      "componentType": 5126,
      "count": 2542,
      "max": [
        1.0000001192092896,
        1.0
      ],
      "min": [
        0.0,
        -1.1920928955078125e-07
      ],
      "type": "VEC2"
    },
    {
      "bufferView": 0,
      "byteOffset": 9299784,
      "componentType": 5125,
      "count": 14280,
      "type": "SCALAR"
    },
    {
      "bufferView": 2,
      "byteOffset": 10949112,
      "componentType": 5126,
      "count": 3357,
      "max": [
        -1.1076499223709106,
        0.9262810349464417,
        0.7264145016670227
      ],
      "min": [
        -1.1536731719970703,
        0.8981732130050659,
        -0.7264145612716675
      ],
      "type": "VEC3"
    },
    {
      "bufferView": 2,
      "byteOffset": 10989396,
      "componentType": 5126,
      "count": 3357,
      "max": [
        0.9999988079071045,
        0.9997460246086121,
        0.9999909996986389
      ],
      "min": [
        -0.9999704360961914,
        -0.9999818205833435,
        -0.9999908208847046
      ],
      "type": "VEC3"
    },
    {
      "bufferView": 1,
      "byteOffset": 4344792,
      "componentType": 5126,
      "count": 3357,
      "max": [
        0.795325517654419,
        0.5721030235290527
      ],
      "min": [
        0.369994193315506,
        0.43995386362075806
      ],
      "type": "VEC2"
    },
    {
      "bufferView": 0,
      "byteOffset": 9356904,
      "componentType": 5125,
      "count": 17280,
      "type": "SCALAR"
    },
    {
      "bufferView": 2,
      "byteOffset": 11029680,
      "componentType": 5126,
      "count": 14316,
      "max": [
        -0.640819251537323,
        1.266971230506897,
        -0.12212289124727249
      ],
      "min": [
        -0.7610385417938232,
        0.8961730599403381,
        -0.506230890750885
      ],
      "type": "VEC3"
    },
    {
      "bufferView": 2,
      "byteOffset": 11201472,
      "componentType": 5126,
      "count": 14316,
      "max": [
        0.9999672174453735,
        0.9999993443489075,
        1.0
      ],
      "min": [
        -0.9999615550041199,
        -0.9999350905418396,
        -1.0
      ],
      "type": "VEC3"
    },
    {
      "bufferView": 1,
      "byteOffset": 4371648,
      "componentType": 5126,
      "count": 14316,
      "max": [
        1.0000001192092896,
        1.0
      ],
      "min": [
        0.0,
        -1.1920928955078125e-07
      ],
      "type": "VEC2"
    },
    {
      "bufferView": 0,
      "byteOffset": 9426024,
      "componentType": 5125,
      "count": 78720,
      "type": "SCALAR"
    },
    {
      "bufferView": 2,
      "byteOffset": 11373264,
      "componentType": 5126,
      "count": 2275,
      "max": [
        -1.7635746002197266,
        0.8299646973609924,
        0.03884178772568703
      ],
      "min": [
        -1.7660424709320068,
        0.7475316524505615,
        -0.038860611617565155
      ],
      "type": "VEC3"
    },
    {
      "bufferView": 2,
      "byteOffset": 11400564,
      "componentType": 5126,
      "count": 2275,
      "max": [
        -0.258851021528244,
        0.9601500630378723,
        0.909950315952301
      ],
      "min": [
        -1.0,
        -0.9601935148239136,
        -0.9100173711776733
      ],
      "type": "VEC3"
    },
    {
      "bufferView": 1,
      "byteOffset": 4486176,
      "componentType": 5126,
      "count": 2275,
      "max": [
        1.2244375944137573,
        1.000168800354004
      ],
      "min": [
        -0.00019983902166131884,
        -0.038632750511169434
      ],
      "type": "VEC2"
    },
    {
      "bufferView": 0,
      "byteOffset": 9740904,
      "componentType": 5125,
      "count": 12288,
      "type": "SCALAR"
    },
    {
      "bufferView": 2,
      "byteOffset": 11427864,
      "componentType": 5126,
      "count": 1120,
      "max": [
        -1.738530158996582,
        0.8299597501754761,
        0.03884207829833031
      ],
      "min": [
        -1.7635747194290161,
        0.7475267052650452,
        -0.03886032477021217
      ],
      "type": "VEC3"
    },
    {
      "bufferView": 2,
      "byteOffset": 11441304,
      "componentType": 5126,
      "count": 1120,
      "max": [
        1.9021024854737334e-05,
        0.9996333122253418,
        0.9993338584899902
      ],
      "min": [
        -2.026792208198458e-05,
        -0.9999995231628418,
        -0.9990615844726563
      ],
      "type": "VEC3"
    },
    {
      "bufferView": 1,
      "byteOffset": 4504376,
      "componentType": 5126,
      "count": 1120,
      "max": [
        0.8574420213699341,
        0.6764987111091614
      ],
      "min": [
        0.8449822068214417,
        0.624794065952301
      ],
      "type": "VEC2"
    },
    {
      "bufferView": 0,
      "byteOffset": 9790056,
      "componentType": 5125,
      "count": 5376,
      "type": "SCALAR"
    },
    {
      "bufferView": 2,
      "byteOffset": 11454744,
      "componentType": 5126,
      "count": 2275,
      "max": [
        1.7948106527328491,
        1.0495795011520386,
        0.03471989557147026
      ],
      "min": [
        1.7922894954681396,
        0.975932240486145,
        -0.03470359742641449
      ],
      "type": "VEC3"
    },
    {
      "bufferView": 2,
      "byteOffset": 11482044,
      "componentType": 5126,
      "count": 2275,
      "max": [
        0.9999659657478333,
        0.950147271156311,
        0.8849701881408691
      ],
      "min": [
        0.2903720438480377,
        -0.9448187947273254,
        -0.8849599361419678
      ],
      "type": "VEC3"
    },
    {
      "bufferView": 1,
      "byteOffset": 4513336,
      "componentType": 5126,
      "count": 2275,
      "max": [
        1.2244375944137573,
        1.000168800354004
      ],
      "min": [
        -0.00019983902166131884,
        -0.038632750511169434
      ],
      "type": "VEC2"
    },
    {
      "bufferView": 0,
      "byteOffset": 9811560,
      "componentType": 5125,
      "count": 12288,
      "type": "SCALAR"
    },
    {
      "bufferView": 2,
      "byteOffset": 11509344,
      "componentType": 5126,
      "count": 6163,
      "max": [
        1.7755738496780396,
        1.1003152132034302,
        0.7226179242134094
      ],
      "min": [
        1.6630902290344238,
        0.7227194309234619,
        -0.7226179242134094
      ],
      "type": "VEC3"
    },
    {
      "bufferView": 2,
      "byteOffset": 11583300,
      "componentType": 5126,
      "count": 6163,
      "max": [
        0.9995022416114807,
        0.6664873361587524,
        0.9999910593032837
      ],
      "min": [
        -0.8469700217247009,
        -0.9813253879547119,
        -0.9999910593032837
      ],
      "type": "VEC3"
    },
    {
      "bufferView": 1,
      "byteOffset": 4531536,
      "componentType": 5126,
      "count": 6163,
      "max": [
        0.7415236830711365,
        0.9694367051124573
      ],
      "min": [
        0.11804191768169403,
        0.05464363098144531
      ],
      "type": "VEC2"
    },
    {
      "bufferView": 0,
      "byteOffset": 9860712,
      "componentType": 5125,
      "count": 33216,
      "type": "SCALAR"
    },
    {
      "bufferView": 2,
      "byteOffset": 11657256,
      "componentType": 5126,
      "count": 4664,
      "max": [
        1.7747129201889038,
        1.099329948425293,
        0.7213281393051147
      ],
      "min": [
        1.6628084182739258,
        0.722747802734375,
        -0.7213281393051147
      ],
      "type": "VEC3"
    },
    {
      "bufferView": 2,
      "byteOffset": 11713224,
      "componentType": 5126,
      "count": 4664,
      "max": [
        0.9995050430297852,
        0.3173510432243347,
        0.9999983310699463
      ],
      "min": [
        -0.00017875683261081576,
        -0.1326289176940918,
        -0.9999982714653015
      ],
      "type": "VEC3"
    },
    {
      "bufferView": 1,
      "byteOffset": 4580840,
      "componentType": 5126,
      "count": 4664,
      "max": [
        0.7415236830711365,
        0.9694367051124573
      ],
      "min": [
        0.11804191768169403,
        0.05464363098144531
      ],
      "type": "VEC2"
    },
    {
      "bufferView": 0,
      "byteOffset": 9993576,
      "componentType": 5125,
      "count": 24768,
      "type": "SCALAR"
    },
    {
      "bufferView": 2,
      "byteOffset": 11769192,
      "componentType": 5126,
      "count": 26128,
      "max": [
        -0.8659989237785339,
        0.5462055206298828,
        0.7006285786628723
      ],
      "min": [
        -1.410909652709961,
        0.002091139554977417,
        -0.7006285786628723
      ],
      "type": "VEC3"
    },
    {
      "bufferView": 2,
      "byteOffset": 12082728,
      "componentType": 5126,
      "count": 26128,
      "max": [
        0.9998943209648132,
        0.9998465776443481,
        0.9977085590362549
      ],
      "min": [
        -0.9998943209648132,
        -0.9999777674674988,
        -0.9977086186408997
      ],
      "type": "VEC3"
    },
    {
      "bufferView": 1,
      "byteOffset": 4618152,
      "componentType": 5126,
      "count": 26128,
      "max": [
        1.0,
        1.0
      ],
      "min": [
        0.0,
        0.0020990371704101563
      ],
      "type": "VEC2"
    },
    {
      "bufferView": 1,
      "byteOffset": 4827176,
      "componentType": 5126,
      "count": 26128,
      "max": [
        1.0,
        1.0
      ],
      "min": [
        0.0,
        0.0020990371704101563
      ],
      "type": "VEC2"
    },
    {
      "bufferView": 0,
      "byteOffset": 10092648,
      "componentType": 5125,
      "count": 40320,
      "type": "SCALAR"
    },
    {
      "bufferView": 2,
      "byteOffset": 12396264,
      "componentType": 5126,
      "count": 26128,
      "max": [
        1.4605472087860107,
        0.5462055206298828,
        0.7006285786628723
      ],
      "min": [
        0.9156365394592285,
        0.002091139554977417,
        -0.7006285786628723
      ],
      "type": "VEC3"
    },
    {
      "bufferView": 2,
      "byteOffset": 12709800,
      "componentType": 5126,
      "count": 26128,
      "max": [
        0.999894380569458,
        0.9998465776443481,
        0.9977086186408997
      ],
      "min": [
        -0.999894380569458,
        -0.9999777674674988,
        -0.9977086186408997
      ],
      "type": "VEC3"
    },
    {
      "bufferView": 1,
      "byteOffset": 5036200,
      "componentType": 5126,
      "count": 26128,
      "max": [
        1.0,
        1.0
      ],
      "min": [
        0.0,
        0.0020990371704101563
      ],
      "type": "VEC2"
    },
    {
      "bufferView": 1,
      "byteOffset": 5245224,
      "componentType": 5126,
      "count": 26128,
      "max": [
        1.0,
        1.0
      ],
      "min": [
        0.0,
        0.0020990371704101563
      ],
      "type": "VEC2"
    },
    {
      "bufferView": 0,
      "byteOffset": 10253928,
      "componentType": 5125,
      "count": 40320,
      "type": "SCALAR"
    },
    {
      "bufferView": 2,
      "byteOffset": 13023336,
      "componentType": 5126,
      "count": 5598,
      "max": [
        1.8085832595825195,
        0.6559320688247681,
        0.7145228385925293
      ],
      "min": [
        -1.809163212776184,
        0.35872527956962585,
        -0.7145228385925293
      ],
      "type": "VEC3"
    },
    {
      "bufferView": 2,
      "byteOffset": 13090512,
      "componentType": 5126,
      "count": 5598,
      "max": [
        0.9672287106513977,
        0.001687917741946876,
        1.0
      ],
      "min": [
        -0.9212468862533569,
        -1.0,
        -1.0
      ],
      "type": "VEC3"
    },
    {
      "bufferView": 1,
      "byteOffset": 5454248,
      "componentType": 5126,
      "count": 5598,
      "max": [
        0.5909728407859802,
        0.6453173160552979
      ],
      "min": [
        0.5746570229530334,
        0.6393068432807922
      ],
      "type": "VEC2"
    },
    {
      "bufferView": 0,
      "byteOffset": 10415208,
      "componentType": 5125,
      "count": 27120,
      "type": "SCALAR"
    },
    {
      "bufferView": 2,
      "byteOffset": 13157688,
      "componentType": 5126,
      "count": 8558,
      "max": [
        -0.19985651969909668,
        1.6352331638336182,
        0.7021355628967285
      ],
      "min": [
        -0.9520898461341858,
        1.1870143413543701,
        -0.7021356225013733
      ],
      "type": "VEC3"
    },
    {
      "bufferView": 2,
      "byteOffset": 13260384,
      "componentType": 5126,
      "count": 8558,
      "max": [
        0.9989949464797974,
        0.9999971985816956,
        0.9999997615814209
      ],
      "min": [
        -0.9995993971824646,
        -0.9999752640724182,
        -0.9999997615814209
      ],
      "type": "VEC3"
    },
    {
      "bufferView": 1,
      "byteOffset": 5499032,
      "componentType": 5126,
      "count": 8558,
      "max": [
        0.9395790100097656,
        0.4923786520957947
      ],
      "min": [
        0.04223358631134033,
        0.005071163177490234
      ],
      "type": "VEC2"
    },
    {
      "bufferView": 0,
      "byteOffset": 10523688,
      "componentType": 5125,
      "count": 44160,
      "type": "SCALAR"
    },
    {
      "bufferView": 2,
      "byteOffset": 13363080,
      "componentType": 5126,
      "count": 4548,
      "max": [
        -0.1938731074333191,
        1.6371997594833374,
        0.6974654793739319
      ],
      "min": [
        -0.9579175114631653,
        1.175769567489624,
        -0.6974654793739319
      ],
      "type": "VEC3"
    },
    {
      "bufferView": 2,
      "byteOffset": 13417656,
      "componentType": 5126,
      "count": 4548,
      "max": [
        0.9999509453773499,
        0.942520797252655,
        0.9987001419067383
      ],
      "min": [
        -0.9996647238731384,
        -0.9971029758453369,
        -0.9987000226974487
      ],
      "type": "VEC3"
    },
    {
      "bufferView": 1,
      "byteOffset": 5567496,
      "componentType": 5126,
      "count": 4548,
      "max": [
        0.0,
        1.0
      ],
      "min": [
        0.0,
        1.0
      ],
      "type": "VEC2"
    },
    {
      "bufferView": 0,
      "byteOffset": 10700328,
      "componentType": 5125,
      "count": 27264,
      "type": "SCALAR"
    },
    {
      "bufferView": 2,
      "byteOffset": 13472232,
      "componentType": 5126,
      "count": 7042,
      "max": [
        -0.7546009421348572,
        1.6909877061843872,
        0.6638917922973633
      ],
      "min": [
        -1.2365233898162842,
        1.1977908611297607,
        -0.6638917922973633
      ],
      "type": "VEC3"
    },
    {
      "bufferView": 2,
      "byteOffset": 13556736,
      "componentType": 5126,
      "count": 7042,
      "max": [
        0.9937855005264282,
        0.9945850372314453,
        0.988266110420227
      ],
      "min": [
        -0.9980360269546509,
        -0.9993067383766174,
        -0.9882662296295166
      ],
      "type": "VEC3"
    },
    {
      "bufferView": 1,
      "byteOffset": 5603880,
      "componentType": 5126,
      "count": 7042,
      "max": [
        0.0,
        1.0
      ],
      "min": [
        0.0,
        1.0
      ],
      "type": "VEC2"
    },
    {
      "bufferView": 0,
      "byteOffset": 10809384,
      "componentType": 5125,
      "count": 42240,
      "type": "SCALAR"
    },
    {
      "bufferView": 2,
      "byteOffset": 13641240,
      "componentType": 5126,
      "count": 3979,
      "max": [
        -0.7543863654136658,
        1.6913353204727173,
        0.6583302617073059
      ],
      "min": [
        -1.1482391357421875,
        1.2183231115341187,
        -0.6583302021026611
      ],
      "type": "VEC3"
    },
    {
      "bufferView": 2,
      "byteOffset": 13688988,
      "componentType": 5126,
      "count": 3979,
      "max": [
        0.9999437928199768,
        0.9999861717224121,
        0.9993475675582886
      ],
      "min": [
        -0.9999868869781494,
        -0.999448835849762,
        -0.9993473887443542
      ],
      "type": "VEC3"
    },
    {
      "bufferView": 1,
      "byteOffset": 5660216,
      "componentType": 5126,
      "count": 3979,
      "max": [
        0.9834325909614563,
        0.4966249465942383
      ],
      "min": [
        0.01321178674697876,
        0.05159062147140503
      ],
      "type": "VEC2"
    },
    {
      "bufferView": 0,
      "byteOffset": 10978344,
      "componentType": 5125,
      "count": 21120,
      "type": "SCALAR"
    },
    {
      "bufferView": 2,
      "byteOffset": 13736736,
      "componentType": 5126,
      "count": 3982,
      "max": [
        1.7693570852279663,
        1.6702314615249634,
        0.6132307052612305
      ],
      "min": [
        1.6751444339752197,
        1.2270655632019043,
        -0.6132307052612305
      ],
      "type": "VEC3"
    },
    {
      "bufferView": 2,
      "byteOffset": 13784520,
      "componentType": 5126,
      "count": 3982,
      "max": [
        0.9999503493309021,
        0.9995719790458679,
        0.9724223017692566
      ],
      "min": [
        -0.9994652271270752,
        -0.9988170862197876,
        -0.9724315404891968
      ],
      "type": "VEC3"
    },
    {
      "bufferView": 1,
      "byteOffset": 5692048,
      "componentType": 5126,
      "count": 3982,
      "max": [
        0.9730144143104553,
        0.5004298686981201
      ],
      "min": [
        0.02960546500980854,
        0.018275439739227295
      ],
      "type": "VEC2"
    },
    {
      "bufferView": 0,
      "byteOffset": 11062824,
      "componentType": 5125,
      "count": 20736,
      "type": "SCALAR"
    },
    {
      "bufferView": 2,
      "byteOffset": 13832304,
      "componentType": 5126,
      "count": 4290,
      "max": [
        1.765372395515442,
        1.669262170791626,
        0.6132307052612305
      ],
      "min": [
        1.6701507568359375,
        1.224907636642456,
        -0.6132307052612305
      ],
      "type": "VEC3"
    },
    {
      "bufferView": 2,
      "byteOffset": 13883784,
      "componentType": 5126,
      "count": 4290,
      "max": [
        0.9984289407730103,
        0.9672127962112427,
        0.99948650598526
      ],
      "min": [
        -0.9984351396560669,
        -0.9948847889900208,
        -0.99948650598526
      ],
      "type": "VEC3"
    },
    {
      "bufferView": 1,
      "byteOffset": 5723904,
      "componentType": 5126,
      "count": 4290,
      "max": [
        0.0,
        1.0
      ],
      "min": [
        0.0,
        1.0
      ],
      "type": "VEC2"
    },
    {
      "bufferView": 0,
      "byteOffset": 11145768,
      "componentType": 5125,
      "count": 25728,
      "type": "SCALAR"
    },
    {
      "bufferView": 2,
      "byteOffset": 13935264,
      "componentType": 5126,
      "count": 7926,
      "max": [
        -1.1119086742401123,
        1.304329514503479,
        0.5886147022247314
      ],
      "min": [
        -1.273546814918518,
        1.166212797164917,
        -0.014771142043173313
      ],
      "type": "VEC3"
    },
    {
      "bufferView": 2,
      "byteOffset": 14030376,
      "componentType": 5126,
      "count": 7926,
      "max": [
        0.9985235929489136,
        0.9993671774864197,
        0.999957263469696
      ],
      "min": [
        -0.9999035596847534,
        -0.9991037249565125,
        -0.9999094009399414
      ],
      "type": "VEC3"
    },
    {
      "bufferView": 1,
      "byteOffset": 5758224,
      "componentType": 5126,
      "count": 7926,
      "max": [
        0.0,
        1.0
      ],
      "min": [
        0.0,
        1.0
      ],
      "type": "VEC2"
    },
    {
      "bufferView": 0,
      "byteOffset": 11248680,
      "componentType": 5125,
      "count": 46560,
      "type": "SCALAR"
    },
    {
      "bufferView": 2,
      "byteOffset": 14125488,
      "componentType": 5126,
      "count": 7926,
      "max": [
        -1.1654636859893799,
        1.3046088218688965,
        0.08703281730413437
      ],
      "min": [
        -1.2285445928573608,
        1.158856749534607,
        -0.520290195941925
      ],
      "type": "VEC3"
    },
    {
      "bufferView": 2,
      "byteOffset": 14220600,
      "componentType": 5126,
      "count": 7926,
      "max": [
        0.9999825358390808,
        0.9997892379760742,
        0.9999577403068542
      ],
      "min": [
        -0.9999050498008728,
        -0.9980611801147461,
        -0.9999092221260071
      ],
      "type": "VEC3"
    },
    {
      "bufferView": 1,
      "byteOffset": 5821632,
      "componentType": 5126,
      "count": 7926,
      "max": [
        0.0,
        1.0
      ],
      "min": [
        0.0,
        1.0
      ],
      "type": "VEC2"
    },
    {
      "bufferView": 0,
      "byteOffset": 11434920,
      "componentType": 5125,
      "count": 46560,
      "type": "SCALAR"
    }
  ],
  "asset": {
    "extras": {
      "author": "MidaZ_3D (https://sketchfab.com/MidaZ_3D)",
      "license": "CC-BY-NC-4.0 (http://creativecommons.org/licenses/by-nc/4.0/)",
      "source": "https://sketchfab.com/3d-models/suzuki-eeco-cargo-3d-model-pbr-real-time-7a392dd124ff437eb0a50396a59f7f0a",
      "title": "Suzuki Eeco Cargo - 3D Model (PBR, Real-Time)"
    },
    "generator": "Sketchfab-17.15.0",
    "version": "2.0"
  },
  "bufferViews": [
    {
      "buffer": 0,
      "byteLength": 11621160,
      "name": "floatBufferViews",
      "target": 34963
    },
    {
      "buffer": 0,
      "byteLength": 5885040,
      "byteOffset": 11621160,
      "byteStride": 8,
      "name": "floatBufferViews",
      "target": 34962
    },
    {
      "buffer": 0,
      "byteLength": 14315712,
      "byteOffset": 17506200,
      "byteStride": 12,
      "name": "floatBufferViews",
      "target": 34962
    }
  ],
  "buffers": [
    {
      "byteLength": 31821912,
      "uri": "scene.bin"
    }
  ],
  "extensionsUsed": [
    "KHR_materials_transmission",
    "KHR_materials_clearcoat"
  ],
  "images": [
    {
      "uri": "textures/Rubber_Baked_metallicRoughness.png"
    },
    {
      "uri": "textures/Rim_silver_metallicRoughness.png"
    },
    {
      "uri": "textures/tailight_baseColor.png"
    }
  ],
  "materials": [
    {
      "doubleSided": true,
      "name": "Rim_black",
      "pbrMetallicRoughness": {
        "baseColorFactor": [
          0.021219,
          0.021219,
          0.021219,
          1.0
        ],
        "roughnessFactor": 0.6312893421609116
      }
    },
    {
      "doubleSided": true,
      "name": "White_Body",
      "pbrMetallicRoughness": {
        "baseColorFactor": [
          0.32642544997868445,
          0.32642544997868445,
          0.32642544997868445,
          1.0
        ],
        "metallicFactor": 0.0,
        "roughnessFactor": 0.0745455
      }
    },
    {
      "doubleSided": true,
      "name": "Plastic_no_Baked",
      "pbrMetallicRoughness": {
        "baseColorFactor": [
          0.012983,
          0.012983,
          0.012983,
          1.0
        ],
        "metallicFactor": 0.0,
        "roughnessFactor": 0.7
      }
    },
    {
      "doubleSided": true,
      "name": "Mirror",
      "pbrMetallicRoughness": {
        "roughnessFactor": 0.0
      }
    },
    {
      "doubleSided": true,
      "name": "chrome_logo",
      "pbrMetallicRoughness": {
        "baseColorFactor": [
          0.509339,
          0.571697,
          0.571697,
          1.0
        ],
        "roughnessFactor": 0.15
      }
    },
    {
      "doubleSided": true,
      "name": "interior",
      "pbrMetallicRoughness": {
        "baseColorFactor": [
          0.0466651,
          0.0466651,
          0.043735,
          1.0
        ],
        "metallicFactor": 0.0,
        "roughnessFactor": 0.5
      }
    },
    {
      "doubleSided": true,
      "name": "interior_grey",
      "pbrMetallicRoughness": {
        "baseColorFactor": [
          0.0865005,
          0.0886556,
          0.0886556,
          1.0
        ],
        "metallicFactor": 0.0,
        "roughnessFactor": 0.675
      }
    },
    {
      "doubleSided": true,
      "name": "interior_black",
      "pbrMetallicRoughness": {
        "baseColorFactor": [
          0.000826896,
          0.000826896,
          0.000826896,
          1.0
        ],
        "metallicFactor": 0.0,
        "roughnessFactor": 0.5
      }
    },
    {
      "doubleSided": true,
      "name": "interior_black.001",
      "pbrMetallicRoughness": {
        "baseColorFactor": [
          0.000826896,
          0.000826896,
          0.000826896,
          1.0
        ],
        "metallicFactor": 0.0
      }
    },
    {
      "alphaMode": "BLEND",
      "doubleSided": true,
      "extensions": {
        "KHR_materials_transmission": {
          "transmissionFactor": 1.0
        }
      },
      "name": "glass_headlight",
      "pbrMetallicRoughness": {
        "baseColorFactor": [
          0.905411,
          0.905411,
          0.905411,
          0.25
        ],
        "metallicFactor": 0.0,
        "roughnessFactor": 0.0
      }
    },
    {
      "alphaMode": "BLEND",
      "doubleSided": true,
      "extensions": {
        "KHR_materials_clearcoat": {
          "clearcoatFactor": 0.0915033,
          "clearcoatRoughnessFactor": 0.03
        },
        "KHR_materials_transmission": {
          "transmissionFactor": 1.0
        }
      },
      "name": "glass_orange",
      "pbrMetallicRoughness": {
        "baseColorFactor": [
          0.752926,
          0.0505924,
          0.0,
          0.25
        ],
        "metallicFactor": 0.0,
        "roughnessFactor": 0.0
      }
    },
    {
      "doubleSided": true,
      "name": "Headlight_interior",
      "pbrMetallicRoughness": {
        "baseColorFactor": [
          0.311099,
          0.311099,
          0.311099,
          1.0
        ],
        "roughnessFactor": 0.0
      }
    },
    {
      "doubleSided": true,
      "name": "Rubber_Baked",
      "pbrMetallicRoughness": {
        "baseColorFactor": [
          0.00560539,
          0.00560539,
          0.00560539,
          1.0
        ],
        "metallicFactor": 0.0,
        "metallicRoughnessTexture": {
          "index": 0
        }
      }
    },
    {
      "doubleSided": true,
      "name": "Rim_silver",
      "pbrMetallicRoughness": {
        "baseColorFactor": [
          0.467783,
          0.467783,
          0.423268,
          1.0
        ],
        "metallicFactor": 0.8,
        "metallicRoughnessTexture": {
          "index": 1
        }
      }
    },
    {
      "alphaMode": "BLEND",
      "doubleSided": true,
      "extensions": {
        "KHR_materials_clearcoat": {
          "clearcoatFactor": 0.0915033,
          "clearcoatRoughnessFactor": 0.03
        },
        "KHR_materials_transmission": {
          "transmissionFactor": 0.19999999999999996
        }
      },
      "name": "glass_orange_indicator",
      "pbrMetallicRoughness": {
        "baseColorFactor": [
          0.752926,
          0.0505924,
          0.0,
          0.8
        ],
        "metallicFactor": 0.0,
        "roughnessFactor": 0.0
      }
    },
    {
      "alphaMode": "BLEND",
      "doubleSided": true,
      "extensions": {
        "KHR_materials_clearcoat": {
          "clearcoatFactor": 0.196078,
          "clearcoatRoughnessFactor": 0.03
        },
        "KHR_materials_transmission": {
          "transmissionFactor": 0.8
        }
      },
      "name": "tailight",
      "pbrMetallicRoughness": {
        "baseColorFactor": [
          1.0,
          1.0,
          1.0,
          0.25
        ],
        "baseColorTexture": {
          "index": 2
        },
        "metallicFactor": 0.0,
        "roughnessFactor": 0.0
      }
    },
    {
      "doubleSided": true,
      "name": "Rubber_no_baked",
      "pbrMetallicRoughness": {
        "baseColorFactor": [
          0.00560539,
          0.00560539,
          0.00560539,
          1.0
        ],
        "metallicFactor": 0.0,
        "roughnessFactor": 0.8
      }
    },
    {
      "alphaMode": "BLEND",
      "doubleSided": true,
      "extensions": {
        "KHR_materials_transmission": {
          "transmissionFactor": 1.0
        }
      },
      "name": "glass",
      "pbrMetallicRoughness": {
        "baseColorFactor": [
          0.361409,
          0.43366,
          0.398624,
          0.25
        ],
        "metallicFactor": 0.0,
        "roughnessFactor": 0.06
      }
    }
  ],
  "meshes": [
    {
      "name": "Object_0",
      "primitives": [
        {
          "attributes": {
            "NORMAL": 1,
            "POSITION": 0,
            "TEXCOORD_0": 2
          },
          "indices": 3,
          "material": 0,
          "mode": 4
        }
      ]
    },
    {
      "name": "Object_1",
      "primitives": [
        {
          "attributes": {
            "NORMAL": 5,
            "POSITION": 4,
            "TEXCOORD_0": 6
          },
          "indices": 7,
          "material": 0,
          "mode": 4
        }
      ]
    },
    {
      "name": "Object_2",
      "primitives": [
        {
          "attributes": {
            "NORMAL": 9,
            "POSITION": 8,
            "TEXCOORD_0": 10
          },
          "indices": 11,
          "material": 1,
          "mode": 4
        }
      ]
    },
    {
      "name": "Object_3",
      "primitives": [
        {
          "attributes": {
            "NORMAL": 13,
            "POSITION": 12,
            "TEXCOORD_0": 14
          },
          "indices": 15,
          "material": 1,
          "mode": 4
        }
      ]
    },
    {
      "name": "Object_4",
      "primitives": [
        {
          "attributes": {
            "NORMAL": 17,
            "POSITION": 16,
            "TEXCOORD_0": 18
          },
          "indices": 19,
          "material": 2,
          "mode": 4
        }
      ]
    },
    {
      "name": "Object_5",
      "primitives": [
        {
          "attributes": {
            "NORMAL": 21,
            "POSITION": 20,
            "TEXCOORD_0": 22
          },
          "indices": 23,
          "material": 3,
          "mode": 4
        }
      ]
    },
    {
      "name": "Object_6",
      "primitives": [
        {
          "attributes": {
            "NORMAL": 25,
            "POSITION": 24,
            "TEXCOORD_0": 26
          },
          "indices": 27,
          "material": 1,
          "mode": 4
        }
      ]
    },
    {
      "name": "Object_7",
      "primitives": [
        {
          "attributes": {
            "NORMAL": 29,
            "POSITION": 28,
            "TEXCOORD_0": 30
          },
          "indices": 31,
          "material": 4,
          "mode": 4
        }
      ]
    },
    {
      "name": "Object_8",
      "primitives": [
        {
          "attributes": {
            "NORMAL": 33,
            "POSITION": 32,
            "TEXCOORD_0": 34
          },
          "indices": 35,
          "material": 2,
          "mode": 4
        }
      ]
    },
    {
      "name": "Object_9",
      "primitives": [
        {
          "attributes": {
            "NORMAL": 37,
            "POSITION": 36,
            "TEXCOORD_0": 38
          },
          "indices": 39,
          "material": 5,
          "mode": 4
        }
      ]
    },
    {
      "name": "Object_10",
      "primitives": [
        {
          "attributes": {
            "NORMAL": 41,
            "POSITION": 40,
            "TEXCOORD_0": 42
          },
          "indices": 43,
          "material": 6,
          "mode": 4
        }
      ]
    },
    {
      "name": "Object_11",
      "primitives": [
        {
          "attributes": {
            "NORMAL": 45,
            "POSITION": 44,
            "TEXCOORD_0": 46
          },
          "indices": 47,
          "material": 7,
          "mode": 4
        }
      ]
    },
    {
      "name": "Object_12",
      "primitives": [
        {
          "attributes": {
            "NORMAL": 49,
            "POSITION": 48,
            "TEXCOORD_0": 50
          },
          "indices": 51,
          "material": 8,
          "mode": 4
        }
      ]
    },
    {
      "name": "Object_13",
      "primitives": [
        {
          "attributes": {
            "NORMAL": 53,
            "POSITION": 52
          },
          "indices": 54,
          "material": 9,
          "mode": 4
        }
      ]
    },
    {
      "name": "Object_14",
      "primitives": [
        {
          "attributes": {
            "NORMAL": 56,
            "POSITION": 55,
            "TEXCOORD_0": 57
          },
          "indices": 58,
          "material": 4,
          "mode": 4
        }
      ]
    },
    {
      "name": "Object_15",
      "primitives": [
        {
          "attributes": {
            "NORMAL": 60,
            "POSITION": 59,
            "TEXCOORD_0": 61
          },
          "indices": 62,
          "material": 2,
          "mode": 4
        }
      ]
    },
    {
      "name": "Object_16",
      "primitives": [
        {
          "attributes": {
            "NORMAL": 64,
            "POSITION": 63,
            "TEXCOORD_0": 65
          },
          "indices": 66,
          "material": 10,
          "mode": 4
        }
      ]
    },
    {
      "name": "Object_17",
      "primitives": [
        {
          "attributes": {
            "NORMAL": 68,
            "POSITION": 67,
            "TEXCOORD_0": 69
          },
          "indices": 70,
          "material": 9,
          "mode": 4
        }
      ]
    },
    {
      "name": "Object_18",
      "primitives": [
        {
          "attributes": {
            "NORMAL": 72,
            "POSITION": 71,
            "TEXCOORD_0": 73
          },
          "indices": 74,
          "material": 11,
          "mode": 4
        }
      ]
    },
    {
      "name": "Object_19",
      "primitives": [
        {
          "attributes": {
            "NORMAL": 76,
            "POSITION": 75,
            "TEXCOORD_0": 77
          },
          "indices": 78,
          "material": 1,
          "mode": 4
        }
      ]
    },
    {
      "name": "Object_20",
      "primitives": [
        {
          "attributes": {
            "NORMAL": 80,
            "POSITION": 79,
            "TEXCOORD_0": 81
          },
          "indices": 82,
          "material": 5,
          "mode": 4
        }
      ]
    },
    {
      "name": "Object_21",
      "primitives": [
        {
          "attributes": {
            "NORMAL": 84,
            "POSITION": 83,
            "TEXCOORD_0": 85,
            "TEXCOORD_1": 86
          },
          "indices": 87,
          "material": 12,
          "mode": 4
        }
      ]
    },
    {
      "name": "Object_22",
      "primitives": [
        {
          "attributes": {
            "NORMAL": 89,
            "POSITION": 88,
            "TEXCOORD_0": 90
          },
          "indices": 91,
          "material": 6,
          "mode": 4
        }
      ]
    },
    {
      "name": "Object_23",
      "primitives": [
        {
          "attributes": {
            "NORMAL": 93,
            "POSITION": 92,
            "TEXCOORD_0": 94
          },
          "indices": 95,
          "material": 4,
          "mode": 4
        }
      ]
    },
    {
      "name": "Object_24",
      "primitives": [
        {
          "attributes": {
            "NORMAL": 97,
            "POSITION": 96,
            "TEXCOORD_0": 98
          },
          "indices": 99,
          "material": 4,
          "mode": 4
        }
      ]
    },
    {
      "name": "Object_25",
      "primitives": [
        {
          "attributes": {
            "NORMAL": 101,
            "POSITION": 100,
            "TEXCOORD_0": 102,
            "TEXCOORD_1": 103
          },
          "indices": 104,
          "material": 13,
          "mode": 4
        }
      ]
    },
    {
      "name": "Object_26",
      "primitives": [
        {
          "attributes": {
            "NORMAL": 106,
            "POSITION": 105,
            "TEXCOORD_0": 107
          },
          "indices": 108,
          "material": 2,
          "mode": 4
        }
      ]
    },
    {
      "name": "Object_27",
      "primitives": [
        {
          "attributes": {
            "NORMAL": 110,
            "POSITION": 109,
            "TEXCOORD_0": 111,
            "TEXCOORD_1": 112
          },
          "indices": 113,
          "material": 13,
          "mode": 4
        }
      ]
    },
    {
      "name": "Object_28",
      "primitives": [
        {
          "attributes": {
            "NORMAL": 115,
            "POSITION": 114,
            "TEXCOORD_0": 116
          },
          "indices": 117,
          "material": 2,
          "mode": 4
        }
      ]
    },
    {
      "name": "Object_29",
      "primitives": [
        {
          "attributes": {
            "NORMAL": 119,
            "POSITION": 118,
            "TEXCOORD_0": 120
          },
          "indices": 121,
          "material": 0,
          "mode": 4
        }
      ]
    },
    {
      "name": "Object_30",
      "primitives": [
        {
          "attributes": {
            "NORMAL": 123,
            "POSITION": 122,
            "TEXCOORD_0": 124
          },
          "indices": 125,
          "material": 5,
          "mode": 4
        }
      ]
    },
    {
      "name": "Object_31",
      "primitives": [
        {
          "attributes": {
            "NORMAL": 127,
            "POSITION": 126,
            "TEXCOORD_0": 128
          },
          "indices": 129,
          "material": 14,
          "mode": 4
        }
      ]
    },
    {
      "name": "Object_32",
      "primitives": [
        {
          "attributes": {
            "NORMAL": 131,
            "POSITION": 130,
            "TEXCOORD_0": 132
          },
          "indices": 133,
          "material": 5,
          "mode": 4
        }
      ]
    },
    {
      "name": "Object_33",
      "primitives": [
        {
          "attributes": {
            "NORMAL": 135,
            "POSITION": 134,
            "TEXCOORD_0": 136
          },
          "indices": 137,
          "material": 4,
          "mode": 4
        }
      ]
    },
    {
      "name": "Object_34",
      "primitives": [
        {
          "attributes": {
            "NORMAL": 139,
            "POSITION": 138,
            "TEXCOORD_0": 140
          },
          "indices": 141,
          "material": 2,
          "mode": 4
        }
      ]
    },
    {
      "name": "Object_35",
      "primitives": [
        {
          "attributes": {
            "NORMAL": 143,
            "POSITION": 142,
            "TEXCOORD_0": 144
          },
          "indices": 145,
          "material": 4,
          "mode": 4
        }
      ]
    },
    {
      "name": "Object_36",
      "primitives": [
        {
          "attributes": {
            "NORMAL": 147,
            "POSITION": 146,
            "TEXCOORD_0": 148
          },
          "indices": 149,
          "material": 15,
          "mode": 4
        }
      ]
    },
    {
      "name": "Object_37",
      "primitives": [
        {
          "attributes": {
            "NORMAL": 151,
            "POSITION": 150,
            "TEXCOORD_0": 152
          },
          "indices": 153,
          "material": 11,
          "mode": 4
        }
      ]
    },
    {
      "name": "Object_38",
      "primitives": [
        {
          "attributes": {
            "NORMAL": 155,
            "POSITION": 154,
            "TEXCOORD_0": 156,
            "TEXCOORD_1": 157
          },
          "indices": 158,
          "material": 12,
          "mode": 4
        }
      ]
    },
    {
      "name": "Object_39",
      "primitives": [
        {
          "attributes": {
            "NORMAL": 160,
            "POSITION": 159,
            "TEXCOORD_0": 161,
            "TEXCOORD_1": 162
          },
          "indices": 163,
          "material": 12,
          "mode": 4
        }
      ]
    },
    {
      "name": "Object_40",
      "primitives": [
        {
          "attributes": {
            "NORMAL": 165,
            "POSITION": 164,
            "TEXCOORD_0": 166
          },
          "indices": 167,
          "material": 2,
          "mode": 4
        }
      ]
    },
    {
      "name": "Object_41",
      "primitives": [
        {
          "attributes": {
            "NORMAL": 169,
            "POSITION": 168,
            "TEXCOORD_0": 170
          },
          "indices": 171,
          "material": 16,
          "mode": 4
        }
      ]
    },
    {
      "name": "Object_42",
      "primitives": [
        {
          "attributes": {
            "NORMAL": 173,
            "POSITION": 172,
            "TEXCOORD_0": 174
          },
          "indices": 175,
          "material": 17,
          "mode": 4
        }
      ]
    },
    {
      "name": "Object_43",
      "primitives": [
        {
          "attributes": {
            "NORMAL": 177,
            "POSITION": 176,
            "TEXCOORD_0": 178
          },
          "indices": 179,
          "material": 17,
          "mode": 4
        }
      ]
    },
    {
      "name": "Object_44",
      "primitives": [
        {
          "attributes": {
            "NORMAL": 181,
            "POSITION": 180,
            "TEXCOORD_0": 182
          },
          "indices": 183,
          "material": 16,
          "mode": 4
        }
      ]
    },
    {
      "name": "Object_45",
      "primitives": [
        {
          "attributes": {
            "NORMAL": 185,
            "POSITION": 184,
            "TEXCOORD_0": 186
          },
          "indices": 187,
          "material": 16,
          "mode": 4
        }
      ]
    },
    {
      "name": "Object_46",
      "primitives": [
        {
          "attributes": {
            "NORMAL": 189,
            "POSITION": 188,
            "TEXCOORD_0": 190
          },
          "indices": 191,
          "material": 17,
          "mode": 4
        }
      ]
    },
    {
      "name": "Object_47",
      "primitives": [
        {
          "attributes": {
            "NORMAL": 193,
            "POSITION": 192,
            "TEXCOORD_0": 194
          },
          "indices": 195,
          "material": 2,
          "mode": 4
        }
      ]
    },
    {
      "name": "Object_48",
      "primitives": [
        {
          "attributes": {
            "NORMAL": 197,
            "POSITION": 196,
            "TEXCOORD_0": 198
          },
          "indices": 199,
          "material": 2,
          "mode": 4
        }
      ]
    }
  ],
  "nodes": [
    {
      "children": [
        1
      ],
      "matrix": [
        1.0,
        0.0,
        0.0,
        0.0,
        0.0,
        2.220446049250313e-16,
        -1.0,
        0.0,
        0.0,
        1.0,
        2.220446049250313e-16,
        0.0,
        0.0,
        0.0,
        0.0,
        1.0
      ],
      "name": "Sketchfab_model"
    },
    {
      "children": [
        2
      ],
      "name": "root"
    },
    {
      "children": [
        3
      ],
      "matrix": [
        1.0,
        0.0,
        0.0,
        0.0,
        0.0,
        2.220446049250313e-16,
        1.0,
        0.0,
        0.0,
        -1.0,
        2.220446049250313e-16,
        0.0,
        0.0,
        0.0,
        0.0,
        1.0
      ],
      "name": "GLTF_SceneRootNode"
    },
    {
      "children": [
        4,
        6,
        8,
        13,
        16,
        18,
        22,
        24,
        26,
        32,
        37,
        39,
        41,
        44,
        47,
        49,
        51,
        53,
        55,
        58,
        60,
        62,
        64,
        66,
        68,
        70,
        73,
        76,
        79,
        81
      ],
      "name": "Car Base Empty_30"
    },
    {
      "children": [
        5
      ],
      "name": "Axle Front_0"
    },
    {
      "mesh": 0,
      "name": "Object_5"
    },
    {
      "children": [
        7
      ],
      "name": "Axle Rear_1"
    },
    {
      "mesh": 1,
      "name": "Object_7"
    },
    {
      "children": [
        9,
        10,
        11,
        12
      ],
      "name": "Body Main_2"
    },
    {
      "mesh": 2,
      "name": "Object_9"
    },
    {
      "mesh": 3,
      "name": "Object_10"
    },
    {
      "mesh": 4,
      "name": "Object_11"
    },
    {
      "mesh": 5,
      "name": "Object_12"
    },
    {
      "children": [
        14,
        15
      ],
      "name": "Body Panel 1_3"
    },
    {
      "mesh": 6,
      "name": "Object_14"
    },
    {
      "mesh": 7,
      "name": "Object_15"
    },
    {
      "children": [
        17
      ],
      "name": "Bumper Front_4"
    },
    {
      "mesh": 8,
      "name": "Object_17"
    },
    {
      "children": [
        19,
        20,
        21
      ],
      "name": "DashBoard_5"
    },
    {
      "mesh": 9,
      "name": "Object_19"
    },
    {
      "mesh": 10,
      "name": "Object_20"
    },
    {
      "mesh": 11,
      "name": "Object_21"
    },
    {
      "children": [
        23
      ],
      "name": "Front Blind Plane_6"
    },
    {
      "mesh": 12,
      "name": "Object_23"
    },
    {
      "children": [
        25
      ],
      "name": "headlight glass_7"
    },
    {
      "mesh": 13,
      "name": "Object_25"
    },
    {
      "children": [
        27,
        28,
        29,
        30,
        31
      ],
      "name": "headlight refelctor_8"
    },
    {
      "mesh": 14,
      "name": "Object_27"
    },
    {
      "mesh": 15,
      "name": "Object_28"
    },
    {
      "mesh": 16,
      "name": "Object_29"
    },
    {
      "mesh": 17,
      "name": "Object_30"
    },
    {
      "mesh": 18,
      "name": "Object_31"
    },
    {
      "children": [
        33,
        34,
        35,
        36
      ],
      "name": "Interior_9"
    },
    {
      "mesh": 19,
      "name": "Object_33"
    },
    {
      "mesh": 20,
      "name": "Object_34"
    },
    {
      "mesh": 21,
      "name": "Object_35"
    },
    {
      "mesh": 22,
      "name": "Object_36"
    },
    {
      "children": [
        38
      ],
      "name": "Keyhole Boot Door_10"
    },
    {
      "mesh": 23,
      "name": "Object_38"
    },
    {
      "children": [
        40
      ],
      "name": "Keyhole Door Handle_11"
    },
    {
      "mesh": 24,
      "name": "Object_40"
    },
    {
      "children": [
        42,
        43
      ],
      "name": "Rim front_12"
    },
    {
      "mesh": 25,
      "name": "Object_42"
    },
    {
      "mesh": 26,
      "name": "Object_43"
    },
    {
      "children": [
        45,
        46
      ],
      "name": "Rim rear_13"
    },
    {
      "mesh": 27,
      "name": "Object_45"
    },
    {
      "mesh": 28,
      "name": "Object_46"
    },
    {
      "children": [
        48
      ],
      "name": "Roof Rack_14"
    },
    {
      "mesh": 29,
      "name": "Object_48"
    },
    {
      "children": [
        50
      ],
      "name": "Seats_15"
    },
    {
      "mesh": 30,
      "name": "Object_50"
    },
    {
      "children": [
        52
      ],
      "name": "Side Indicator_16"
    },
    {
      "mesh": 31,
      "name": "Object_52"
    },
    {
      "children": [
        54
      ],
      "name": "Steering_17"
    },
    {
      "mesh": 32,
      "name": "Object_54"
    },
    {
      "children": [
        56,
        57
      ],
      "name": "suzuki logo_18"
    },
    {
      "mesh": 33,
      "name": "Object_56"
    },
    {
      "mesh": 34,
      "name": "Object_57"
    },
    {
      "children": [
        59
      ],
      "name": "suzuki logo back_19"
    },
    {
      "mesh": 35,
      "name": "Object_59"
    },
    {
      "children": [
        61
      ],
      "name": "Tail Light_20"
    },
    {
      "mesh": 36,
      "name": "Object_61"
    },
    {
      "children": [
        63
      ],
      "name": "Tail Light interior_21"
    },
    {
      "mesh": 37,
      "name": "Object_63"
    },
    {
      "children": [
        65
      ],
      "name": "Tyre front_22"
    },
    {
      "mesh": 38,
      "name": "Object_65"
    },
    {
      "children": [
        67
      ],
      "name": "Tyre Rear_23"
    },
    {
      "mesh": 39,
      "name": "Object_67"
    },
    {
      "children": [
        69
      ],
      "name": "Underbody_24"
    },
    {
      "mesh": 40,
      "name": "Object_69"
    },
    {
      "children": [
        71,
        72
      ],
      "name": "Window 1st Row_25"
    },
    {
      "mesh": 41,
      "name": "Object_71"
    },
    {
      "mesh": 42,
      "name": "Object_72"
    },
    {
      "children": [
        74,
        75
      ],
      "name": "Windshield Front_26"
    },
    {
      "mesh": 43,
      "name": "Object_74"
    },
    {
      "mesh": 44,
      "name": "Object_75"
    },
    {
      "children": [
        77,
        78
      ],
      "name": "Windshield Rear_27"
    },
    {
      "mesh": 45,
      "name": "Object_77"
    },
    {
      "mesh": 46,
      "name": "Object_78"
    },
    {
      "children": [
        80
      ],
      "name": "Wiper left_28"
    },
    {
      "mesh": 47,
      "name": "Object_80"
    },
    {
      "children": [
        82
      ],
      "name": "Wiper right_29"
    },
    {
      "mesh": 48,
      "name": "Object_82"
    }
  ],
  "samplers": [
    {
      "magFilter": 9729,
      "minFilter": 9987,
      "wrapS": 10497,
      "wrapT": 10497
    }
  ],
  "scene": 0,
  "scenes": [
    {
      "name": "Sketchfab_Scene",
      "nodes": [
        0
      ]
    }
  ],
  "textures": [
    {
      "sampler": 0,
      "source": 0
    },
    {
      "sampler": 0,
      "source": 1
    },
    {
      "sampler": 0,
      "source": 2
    }
  ]
}
