{
  "accessors": [
    {
      "bufferView": 2,
      "componentType": 5126,
      "count": 3200,
      "max": [
        1.838935375213623,
        0.12419445067644119,
        1.838935375213623
      ],
      "min": [
        -1.8389354944229126,
        -0.12419445067644119,
        -1.838935375213623
      ],
      "type": "VEC3"
    },
    {
      "bufferView": 2,
      "byteOffset": 38400,
      "componentType": 5126,
      "count": 3200,
      "max": [
        1.0,
        0.9999964237213135,
        1.0
      ],
      "min": [
        -1.0,
        -0.9999964237213135,
        -1.0
      ],
      "type": "VEC3"
    },
    {
      "bufferView": 3,
      "componentType": 5126,
      "count": 3200,
      "max": [
        1.0,
        0.016370248049497604,
        1.0,
        -1.0
      ],
      "min": [
        -1.0,
        -0.01637066714465618,
        -1.0,
        -1.0
      ],
      "type": "VEC4"
    },
    {
      "bufferView": 1,
      "componentType": 5126,
      "count": 3200,
      "max": [
        2.33258318901062,
        2.33258318901062
      ],
      "min": [
        -1.3325831890106201,
        -1.3325831890106201
      ],
      "type": "VEC2"
    },
    {
      "bufferView": 1,
      "byteOffset": 25600,
      "componentType": 5126,
      "count": 3200,
      "max": [
        1.0000001192092896,
        1.0
      ],
      "min": [
        8.881784197001252e-16,
        -1.1920928955078125e-07
      ],
      "type": "VEC2"
    },
    {
      "bufferView": 1,
      "byteOffset": 51200,
      "componentType": 5126,
      "count": 3200,
      "max": [
        2.33258318901062,
        2.33258318901062
      ],
      "min": [
        -1.3325831890106201,
        -1.3325831890106201
      ],
      "type": "VEC2"
    },
    {
      "bufferView": 1,
      "byteOffset": 76800,
      "componentType": 5126,
      "count": 3200,
      "max": [
        2.33258318901062,
        2.33258318901062
      ],
      "min": [
        -1.3325831890106201,
        -1.3325831890106201
      ],
      "type": "VEC2"
    },
    {
      "bufferView": 1,
      "byteOffset": 102400,
      "componentType": 5126,
      "count": 3200,
      "max": [
        2.33258318901062,
        2.33258318901062
      ],
      "min": [
        -1.3325831890106201,
        -1.3325831890106201
      ],
      "type": "VEC2"
    },
    {
      "bufferView": 0,
      "componentType": 5125,
      "count": 13824,
      "type": "SCALAR"
    },
    {
      "bufferView": 2,
      "byteOffset": 76800,
      "componentType": 5126,
      "count": 20992,
      "max": [
        0.4299483895301819,
        1.4238547086715698,
        0.4299483895301819
      ],
      "min": [
        -0.4299483895301819,
        0.19460174441337585,
        -0.4299483895301819
      ],
      "type": "VEC3"
    },
    {
      "bufferView": 2,
      "byteOffset": 328704,
      "componentType": 5126,
      "count": 20992,
      "max": [
        0.9996973872184753,
        0.9999507069587708,
        0.9996973872184753
      ],
      "min": [
        -0.9996973872184753,
        -0.9999849796295166,
        -0.9996973872184753
      ],
      "type": "VEC3"
    },
    {
      "bufferView": 1,
      "byteOffset": 128000,
      "componentType": 5126,
      "count": 20992,
      "max": [
        0.9229511618614197,
        0.922950804233551
      ],
      "min": [
        0.5770491361618042,
        0.5770491361618042
      ],
      "type": "VEC2"
    },
    {
      "bufferView": 0,
      "byteOffset": 55296,
      "componentType": 5125,
      "count": 31488,
      "type": "SCALAR"
    },
    {
      "bufferView": 2,
      "byteOffset": 580608,
      "componentType": 5126,
      "count": 4279,
      "max": [
        1.5471584796905518,
        0.0,
        1.547158122062683
      ],
      "min": [
        -1.0934045314788818,
        -0.10083534568548203,
        -1.2956488132476807
      ],
      "type": "VEC3"
    },
    {
      "bufferView": 2,
      "byteOffset": 631956,
      "componentType": 5126,
      "count": 4279,
      "max": [
        0.9993299841880798,
        1.0,
        1.0
      ],
      "min": [
        -1.0,
        -1.0,
        -1.0
      ],
      "type": "VEC3"
    },
    {
      "bufferView": 1,
      "byteOffset": 295936,
      "componentType": 5126,
      "count": 4279,
      "max": [
        0.875,
        1.0
      ],
      "min": [
        0.0,
        0.0
      ],
      "type": "VEC2"
    },
    {
      "bufferView": 0,
      "byteOffset": 181248,
      "componentType": 5125,
      "count": 21186,
      "type": "SCALAR"
    },
    {
      "bufferView": 2,
      "byteOffset": 683304,
      "componentType": 5126,
      "count": 9808,
      "max": [
        1.8637768030166626,
        0.019106844440102577,
        1.863776683807373
      ],
      "min": [
        -1.863776683807373,
        -0.019106844440102577,
        -1.8637768030166626
      ],
      "type": "VEC3"
    },
    {
      "bufferView": 2,
      "byteOffset": 801000,
      "componentType": 5126,
      "count": 9808,
      "max": [
        1.0,
        0.9999998807907104,
        1.0
      ],
      "min": [
        -1.0,
        -0.9999998807907104,
        -1.0
      ],
      "type": "VEC3"
    },
    {
      "bufferView": 1,
      "byteOffset": 330168,
      "componentType": 5126,
      "count": 9808,
      "max": [
        1.0000001192092896,
        1.0
      ],
      "min": [
        0.0,
        -1.1920928955078125e-07
      ],
      "type": "VEC2"
    },
    {
      "bufferView": 0,
      "byteOffset": 265992,
      "componentType": 5125,
      "count": 55296,
      "type": "SCALAR"
    },
    {
      "bufferView": 2,
      "byteOffset": 918696,
      "componentType": 5126,
      "count": 9808,
      "max": [
        1.604518175125122,
        0.019106844440102577,
        1.604518175125122
      ],
      "min": [
        -1.604518175125122,
        -0.01910684071481228,
        -1.604518175125122
      ],
      "type": "VEC3"
    },
    {
      "bufferView": 2,
      "byteOffset": 1036392,
      "componentType": 5126,
      "count": 9808,
      "max": [
        1.0,
        0.9999998807907104,
        1.0
      ],
      "min": [
        -1.0,
        -0.9999998807907104,
        -1.0
      ],
      "type": "VEC3"
    },
    {
      "bufferView": 1,
      "byteOffset": 408632,
      "componentType": 5126,
      "count": 9808,
      "max": [
        1.0000001192092896,
        1.0
      ],
      "min": [
        0.0,
        -1.1920928955078125e-07
      ],
      "type": "VEC2"
    },
    {
      "bufferView": 0,
      "byteOffset": 487176,
      "componentType": 5125,
      "count": 55296,
      "type": "SCALAR"
    },
    {
      "bufferView": 2,
      "byteOffset": 1154088,
      "componentType": 5126,
      "count": 6639,
      "max": [
        0.21142961084842682,
        -0.21560634672641754,
        0.21142961084842682
      ],
      "min": [
        -0.21142961084842682,
        -0.2272038757801056,
        -0.21142961084842682
      ],
      "type": "VEC3"
    },
    {
      "bufferView": 2,
      "byteOffset": 1233756,
      "componentType": 5126,
      "count": 6639,
      "max": [
        0.9450558423995972,
        1.0,
        0.9450558423995972
      ],
      "min": [
        -0.9450558423995972,
        -1.0,
        -0.9450558423995972
      ],
      "type": "VEC3"
    },
    {
      "bufferView": 1,
      "byteOffset": 487096,
      "componentType": 5126,
      "count": 6639,
      "max": [
        0.3553830087184906,
        0.855383038520813
      ],
      "min": [
        0.1446169912815094,
        0.6446171998977661
      ],
      "type": "VEC2"
    },
    {
      "bufferView": 1,
      "byteOffset": 540208,
      "componentType": 5126,
      "count": 6639,
      "max": [
        0.713794469833374,
        0.7272037267684937
      ],
      "min": [
        0.286205530166626,
        0.286205530166626
      ],
      "type": "VEC2"
    },
    {
      "bufferView": 0,
      "byteOffset": 708360,
      "componentType": 5125,
      "count": 10752,
      "type": "SCALAR"
    },
    {
      "bufferView": 2,
      "byteOffset": 1313424,
      "componentType": 5126,
      "count": 27427,
      "max": [
        0.4821142256259918,
        0.19460174441337585,
        0.4821142256259918
      ],
      "min": [
        -0.4821142256259918,
        -0.21352379024028778,
        -0.4821142554283142
      ],
      "type": "VEC3"
    },
    {
      "bufferView": 2,
      "byteOffset": 1642548,
      "componentType": 5126,
      "count": 27427,
      "max": [
        0.9996959567070007,
        1.0,
        0.9996959567070007
      ],
      "min": [
        -0.9996959567070007,
        -0.9999860525131226,
        -0.9996959567070007
      ],
      "type": "VEC3"
    },
    {
      "bufferView": 1,
      "byteOffset": 593320,
      "componentType": 5126,
      "count": 27427,
      "max": [
        1.0000001192092896,
        0.9900000095367432
      ],
      "min": [
        0.0,
        -1.1920928955078125e-07
      ],
      "type": "VEC2"
    },
    {
      "bufferView": 0,
      "byteOffset": 751368,
      "componentType": 5125,
      "count": 43776,
      "type": "SCALAR"
    },
    {
      "bufferView": 2,
      "byteOffset": 1971672,
      "componentType": 5126,
      "count": 21361,
      "max": [
        0.3307768702507019,
        0.0,
        -0.04283973202109337
      ],
      "min": [
        0.028211509808897972,
        -0.025509828701615334,
        -0.13143979012966156
      ],
      "type": "VEC3"
    },
    {
      "bufferView": 2,
      "byteOffset": 2228004,
      "componentType": 5126,
      "count": 21361,
      "max": [
        0.9999734163284302,
        1.0,
        1.0
      ],
      "min": [
        -1.0,
        -1.0,
        -0.9999994039535522
      ],
      "type": "VEC3"
    },
    {
      "bufferView": 1,
      "byteOffset": 812736,
      "componentType": 5126,
      "count": 21361,
      "max": [
        1.0,
        1.0
      ],
      "min": [
        0.0,
        1.0
      ],
      "type": "VEC2"
    },
    {
      "bufferView": 0,
      "byteOffset": 926472,
      "componentType": 5125,
      "count": 33576,
      "type": "SCALAR"
    }
  ],
  "asset": {
    "extras": {
      "author": "Kryox Shade (https://sketchfab.com/kryoxshade)",
      "license": "CC-BY-4.0 (http://creativecommons.org/licenses/by/4.0/)",
      "source": "https://sketchfab.com/3d-models/classic-steering-wheel-ec505b832bfa4061b6f9e86c0560f474",
      "title": "Classic Steering Wheel"
    },
    "generator": "Sketchfab-16.95.0",
    "version": "2.0"
  },
  "bufferViews": [
    {
      "buffer": 0,
      "byteLength": 1060776,
      "name": "floatBufferViews",
      "target": 34963
    },
    {
      "buffer": 0,
      "byteLength": 983624,
      "byteOffset": 1060776,
      "byteStride": 8,
      "name": "floatBufferViews",
      "target": 34962
    },
    {
      "buffer": 0,
      "byteLength": 2484336,
      "byteOffset": 2044400,
      "byteStride": 12,
      "name": "floatBufferViews",
      "target": 34962
    },
    {
      "buffer": 0,
      "byteLength": 51200,
      "byteOffset": 4528736,
      "byteStride": 16,
      "name": "floatBufferViews",
      "target": 34962
    }
  ],
  "buffers": [
    {
      "byteLength": 4579936,
      "uri": "scene.bin"
    }
  ],
  "extensionsUsed": [
    "KHR_materials_specular"
  ],
  "images": [
    {
      "uri": "textures/Light_Wood_baseColor.jpeg"
    },
    {
      "uri": "textures/Light_Wood_metallicRoughness.png"
    },
    {
      "uri": "textures/Light_Wood_normal.jpeg"
    }
  ],
  "materials": [
    {
      "doubleSided": true,
      "name": "Light_Wood",
      "normalTexture": {
        "index": 2
      },
      "pbrMetallicRoughness": {
        "baseColorTexture": {
          "index": 0
        },
        "metallicFactor": 0.0,
        "metallicRoughnessTexture": {
          "index": 1
        }
      }
    },
    {
      "doubleSided": true,
      "name": "Material.001",
      "pbrMetallicRoughness": {
        "baseColorFactor": [
          0.0245135,
          0.0245135,
          0.0245135,
          1.0
        ],
        "metallicFactor": 0.0,
        "roughnessFactor": 0.5
      }
    },
    {
      "doubleSided": true,
      "extensions": {
        "KHR_materials_specular": {
          "specularColorFactor": [
            1.0,
            1.0,
            1.0
          ],
          "specularFactor": 1.0
        }
      },
      "name": "Material",
      "pbrMetallicRoughness": {
        "baseColorFactor": [
          0.8,
          0.8,
          0.8,
          1.0
        ],
        "roughnessFactor": 0.0
      }
    },
    {
      "doubleSided": true,
      "extensions": {
        "KHR_materials_specular": {
          "specularColorFactor": [
            1.0,
            1.0,
            1.0
          ],
          "specularFactor": 1.0
        }
      },
      "name": "Material_0",
      "pbrMetallicRoughness": {
        "baseColorFactor": [
          0.8,
          0.8,
          0.8,
          1.0
        ],
        "roughnessFactor": 0.0
      }
    },
    {
      "alphaMode": "BLEND",
      "doubleSided": true,
      "name": "HeadLight_Glass",
      "pbrMetallicRoughness": {
        "baseColorFactor": [
          1.0,
          1.0,
          1.0,
          0.15085760261364606
        ],
        "roughnessFactor": 0.30933427606636515
      }
    },
    {
      "doubleSided": true,
      "name": "Material.002",
      "pbrMetallicRoughness": {
        "baseColorFactor": [
          0.0181097,
          0.0181097,
          0.0181097,
          1.0
        ],
        "metallicFactor": 0.347305,
        "roughnessFactor": 0.0808383
      }
    }
  ],
  "meshes": [
    {
      "name": "Object_0",
      "primitives": [
        {
          "attributes": {
            "NORMAL": 1,
            "POSITION": 0,
            "TANGENT": 2,
            "TEXCOORD_0": 3,
            "TEXCOORD_1": 4,
            "TEXCOORD_2": 5,
            "TEXCOORD_3": 6,
            "TEXCOORD_4": 7
          },
          "indices": 8,
          "material": 0,
          "mode": 4
        }
      ]
    },
    {
      "name": "Object_1",
      "primitives": [
        {
          "attributes": {
            "NORMAL": 10,
            "POSITION": 9,
            "TEXCOORD_0": 11
          },
          "indices": 12,
          "material": 1,
          "mode": 4
        }
      ]
    },
    {
      "name": "Object_2",
      "primitives": [
        {
          "attributes": {
            "NORMAL": 14,
            "POSITION": 13,
            "TEXCOORD_0": 15
          },
          "indices": 16,
          "material": 2,
          "mode": 4
        }
      ]
    },
    {
      "name": "Object_3",
      "primitives": [
        {
          "attributes": {
            "NORMAL": 18,
            "POSITION": 17,
            "TEXCOORD_0": 19
          },
          "indices": 20,
          "material": 3,
          "mode": 4
        }
      ]
    },
    {
      "name": "Object_4",
      "primitives": [
        {
          "attributes": {
            "NORMAL": 22,
            "POSITION": 21,
            "TEXCOORD_0": 23
          },
          "indices": 24,
          "material": 3,
          "mode": 4
        }
      ]
    },
    {
      "name": "Object_5",
      "primitives": [
        {
          "attributes": {
            "NORMAL": 26,
            "POSITION": 25,
            "TEXCOORD_0": 27,
            "TEXCOORD_1": 28
          },
          "indices": 29,
          "material": 4,
          "mode": 4
        }
      ]
    },
    {
      "name": "Object_6",
      "primitives": [
        {
          "attributes": {
            "NORMAL": 31,
            "POSITION": 30,
            "TEXCOORD_0": 32
          },
          "indices": 33,
          "material": 5,
          "mode": 4
        }
      ]
    },
    {
      "name": "Object_7",
      "primitives": [
        {
          "attributes": {
            "NORMAL": 35,
            "POSITION": 34,
            "TEXCOORD_0": 36
          },
          "indices": 37,
          "material": 3,
          "mode": 4
        }
      ]
    }
  ],
  "nodes": [
    {
      "children": [
        1
      ],
      "matrix": [
        1.0,
        0.0,
        0.0,
        0.0,
        0.0,
        2.220446049250313e-16,
        -1.0,
        0.0,
        0.0,
        1.0,
        2.220446049250313e-16,
        0.0,
        0.0,
        0.0,
        0.0,
        1.0
      ],
      "name": "Sketchfab_model"
    },
    {
      "children": [
        2
      ],
      "name": "root"
    },
    {
      "children": [
        3,
        5,
        7,
        9,
        11,
        13,
        15,
        17
      ],
      "matrix": [
        1.0,
        0.0,
        0.0,
        0.0,
        0.0,
        2.220446049250313e-16,
        1.0,
        0.0,
        0.0,
        -1.0,
        2.220446049250313e-16,
        0.0,
        0.0,
        0.0,
        0.0,
        1.0
      ],
      "name": "GLTF_SceneRootNode"
    },
    {
      "children": [
        4
      ],
      "matrix": [
        1.0,
        0.0,
        0.0,
        0.0,
        0.0,
        0.0,
        1.0,
        0.0,
        0.0,
        -1.0,
        0.0,
        0.0,
        0.0,
        0.0,
        0.0,
        1.0
      ],
      "name": "Torus_0"
    },
    {
      "mesh": 0,
      "name": "Object_4"
    },
    {
      "children": [
        6
      ],
      "matrix": [
        1.0,
        0.0,
        0.0,
        0.0,
        0.0,
        0.0,
        1.0,
        0.0,
        0.0,
        -1.0,
        0.0,
        0.0,
        0.0,
        0.0,
        0.0,
        1.0
      ],
      "name": "Cylinder_1"
    },
    {
      "mesh": 1,
      "name": "Object_6"
    },
    {
      "children": [
        8
      ],
      "matrix": [
        1.0,
        0.0,
        0.0,
        0.0,
        0.0,
        0.0,
        1.0,
        0.0,
        0.0,
        -1.0,
        0.0,
        0.0,
        0.0,
        0.0,
        0.08220648020505905,
        1.0
      ],
      "name": "Circle_2"
    },
    {
      "mesh": 2,
      "name": "Object_8"
    },
    {
      "children": [
        10
      ],
      "matrix": [
        1.0,
        0.0,
        0.0,
        0.0,
        0.0,
        0.0,
        1.0,
        0.0,
        0.0,
        -1.0,
        0.0,
        0.0,
        0.0,
        0.0,
        0.0,
        1.0
      ],
      "name": "Torus.001_3"
    },
    {
      "mesh": 3,
      "name": "Object_10"
    },
    {
      "children": [
        12
      ],
      "matrix": [
        1.0,
        0.0,
        0.0,
        0.0,
        0.0,
        0.0,
        1.0,
        0.0,
        0.0,
        -1.0,
        0.0,
        0.0,
        0.0,
        0.0,
        0.0,
        1.0
      ],
      "name": "Torus.002_4"
    },
    {
      "mesh": 4,
      "name": "Object_12"
    },
    {
      "children": [
        14
      ],
      "matrix": [
        1.0,
        0.0,
        0.0,
        0.0,
        0.0,
        0.0,
        1.0,
        0.0,
        0.0,
        -1.0,
        0.0,
        0.0,
        0.0,
        0.0,
        0.014676466584205627,
        1.0
      ],
      "name": "Cylinder.001_5"
    },
    {
      "mesh": 5,
      "name": "Object_14"
    },
    {
      "children": [
        16
      ],
      "matrix": [
        1.0,
        0.0,
        0.0,
        0.0,
        0.0,
        0.0,
        1.0,
        0.0,
        0.0,
        -1.0,
        0.0,
        0.0,
        0.0,
        0.0,
        0.0,
        1.0
      ],
      "name": "Cylinder.002_6"
    },
    {
      "mesh": 6,
      "name": "Object_16"
    },
    {
      "children": [
        18
      ],
      "matrix": [
        -1.176900148391697,
        -1.7770701099859978e-07,
        -1.7770701099859978e-07,
        0.0,
        1.7770701099859978e-07,
        1.33275407527784e-14,
        -1.1769001483917103,
        0.0,
        1.7770701099859978e-07,
        -1.1769001483917103,
        1.33275407527784e-14,
        0.0,
        0.21168185770511627,
        -0.07585117220878601,
        -0.1863582730293274,
        1.0
      ],
      "name": "Path 0_7"
    },
    {
      "mesh": 7,
      "name": "Object_18"
    }
  ],
  "samplers": [
    {
      "magFilter": 9729,
      "minFilter": 9987,
      "wrapS": 10497,
      "wrapT": 10497
    }
  ],
  "scene": 0,
  "scenes": [
    {
      "name": "Sketchfab_Scene",
      "nodes": [
        0
      ]
    }
  ],
  "textures": [
    {
      "sampler": 0,
      "source": 0
    },
    {
      "sampler": 0,
      "source": 1
    },
    {
      "sampler": 0,
      "source": 2
    }
  ]
}
